<mxfile host="65bd71144e">
    <diagram id="Yp8qMfMUpMomItAMZqRN" name="ページ1">
        <mxGraphModel dx="2431" dy="6160" grid="1" gridSize="10" guides="1" tooltips="1" connect="1" arrows="1" fold="1" page="1" pageScale="1" pageWidth="1169" pageHeight="827" math="0" shadow="0">
            <root>
                <mxCell id="0"/>
                <mxCell id="1" parent="0"/>
                <UserObject label="" mermaidData="{&#xa;  &quot;data&quot;: &quot;erDiagram\n    users {\n        bigint id PK\n        string name\n        string email\n        string password_digest\n    }\n\n    items {\n        bigint id PK\n        string name\n        string category\n    }\n\n    menus {\n        bigint id PK\n        bigint user_id FK\n        string name\n        date date\n    }\n\n    dishes {\n        bigint id PK\n        bigint user_id FK\n        string name\n        text instructions\n    }\n\n    stocks {\n        bigint id PK\n        bigint user_id FK\n        bigint item_id FK\n        decimal quantity\n        string unit\n        date expiration_date\n    }\n\n    shopping_lists {\n        bigint id PK\n        bigint user_id FK\n        string name\n        datetime created_at\n    }\n\n    menu_dishes {\n        bigint id PK\n        bigint menu_id FK\n        bigint dish_id FK\n    }\n\n    dish_ingredients {\n        bigint id PK\n        bigint dish_id FK\n        bigint item_id FK\n        decimal quantity\n        string unit\n    }\n\n    shopping_list_items {\n        bigint id PK\n        bigint shopping_list_id FK\n        bigint item_id FK\n        integer quantity\n        string unit\n        boolean is_purchased\n    }\n\n    users ||--o{ menus : \&quot;作成する\&quot;\n    users ||--o{ dishes : \&quot;作成する\&quot;\n    users ||--o{ stocks : \&quot;管理する\&quot;\n    users ||--o{ shopping_lists : \&quot;作成する\&quot;\n\n    menus ||--|{ menu_dishes : \&quot;含む\&quot;\n    dishes ||--|{ menu_dishes : \&quot;含まれる\&quot;\n\n    dishes ||--|{ dish_ingredients : \&quot;必要とする\&quot;\n    items ||--|{ dish_ingredients : \&quot;使われる\&quot;\n\n    shopping_lists ||--|{ shopping_list_items : \&quot;含む\&quot;\n    items ||--|{ shopping_list_items : \&quot;含まれる\&quot;\n\n    stocks }|--|| items : \&quot;は一種の\&quot;\n&quot;&#xa;}" id="40">
                    <mxCell style="shape=image;noLabel=1;verticalAlign=top;imageAspect=1;image=data:image/svg+xml,PHN2ZyBhcmlhLXJvbGVkZXNjcmlwdGlvbj0iZXIiIHJvbGU9ImdyYXBoaWNzLWRvY3VtZW50IGRvY3VtZW50IiB2aWV3Qm94PSIwIDAgODU1LjEyNjc3MDAxOTUzMTIgODc2IiBzdHlsZT0ibWF4LXdpZHRoOiA4NTUuMTI2NzcwMDE5NTMxMnB4OyIgeG1sbnM9Imh0dHA6Ly93d3cudzMub3JnLzIwMDAvc3ZnIiB3aWR0aD0iMTAwJSIgaWQ9ImdlTWVybWFpZE91dHB1dC0xNzU2ODAyMDQwNTU3Ij48c3R5bGU+I2dlTWVybWFpZE91dHB1dC0xNzU2ODAyMDQwNTU3e2ZvbnQtZmFtaWx5OiJ0cmVidWNoZXQgbXMiLHZlcmRhbmEsYXJpYWwsc2Fucy1zZXJpZjtmb250LXNpemU6MTZweDtmaWxsOiMwMDAwMDA7fSNnZU1lcm1haWRPdXRwdXQtMTc1NjgwMjA0MDU1NyAuZXJyb3ItaWNvbntmaWxsOiM1NTIyMjI7fSNnZU1lcm1haWRPdXRwdXQtMTc1NjgwMjA0MDU1NyAuZXJyb3ItdGV4dHtmaWxsOiM1NTIyMjI7c3Ryb2tlOiM1NTIyMjI7fSNnZU1lcm1haWRPdXRwdXQtMTc1NjgwMjA0MDU1NyAuZWRnZS10aGlja25lc3Mtbm9ybWFse3N0cm9rZS13aWR0aDoxcHg7fSNnZU1lcm1haWRPdXRwdXQtMTc1NjgwMjA0MDU1NyAuZWRnZS10aGlja25lc3MtdGhpY2t7c3Ryb2tlLXdpZHRoOjMuNXB4O30jZ2VNZXJtYWlkT3V0cHV0LTE3NTY4MDIwNDA1NTcgLmVkZ2UtcGF0dGVybi1zb2xpZHtzdHJva2UtZGFzaGFycmF5OjA7fSNnZU1lcm1haWRPdXRwdXQtMTc1NjgwMjA0MDU1NyAuZWRnZS10aGlja25lc3MtaW52aXNpYmxle3N0cm9rZS13aWR0aDowO2ZpbGw6bm9uZTt9I2dlTWVybWFpZE91dHB1dC0xNzU2ODAyMDQwNTU3IC5lZGdlLXBhdHRlcm4tZGFzaGVke3N0cm9rZS1kYXNoYXJyYXk6Mzt9I2dlTWVybWFpZE91dHB1dC0xNzU2ODAyMDQwNTU3IC5lZGdlLXBhdHRlcm4tZG90dGVke3N0cm9rZS1kYXNoYXJyYXk6Mjt9I2dlTWVybWFpZE91dHB1dC0xNzU2ODAyMDQwNTU3IC5tYXJrZXJ7ZmlsbDojNjY2O3N0cm9rZTojNjY2O30jZ2VNZXJtYWlkT3V0cHV0LTE3NTY4MDIwNDA1NTcgLm1hcmtlci5jcm9zc3tzdHJva2U6IzY2Njt9I2dlTWVybWFpZE91dHB1dC0xNzU2ODAyMDQwNTU3IHN2Z3tmb250LWZhbWlseToidHJlYnVjaGV0IG1zIix2ZXJkYW5hLGFyaWFsLHNhbnMtc2VyaWY7Zm9udC1zaXplOjE2cHg7fSNnZU1lcm1haWRPdXRwdXQtMTc1NjgwMjA0MDU1NyBwe21hcmdpbjowO30jZ2VNZXJtYWlkT3V0cHV0LTE3NTY4MDIwNDA1NTcgLmVudGl0eUJveHtmaWxsOiNlZWU7c3Ryb2tlOiM5OTk7fSNnZU1lcm1haWRPdXRwdXQtMTc1NjgwMjA0MDU1NyAuYXR0cmlidXRlQm94T2Rke2ZpbGw6I2ZmZmZmZjtzdHJva2U6Izk5OTt9I2dlTWVybWFpZE91dHB1dC0xNzU2ODAyMDQwNTU3IC5hdHRyaWJ1dGVCb3hFdmVue2ZpbGw6I2YyZjJmMjtzdHJva2U6Izk5OTt9I2dlTWVybWFpZE91dHB1dC0xNzU2ODAyMDQwNTU3IC5yZWxhdGlvbnNoaXBMYWJlbEJveHtmaWxsOmhzbCgtMTYwLCAwJSwgOTMuMzMzMzMzMzMzMyUpO29wYWNpdHk6MC43O2JhY2tncm91bmQtY29sb3I6aHNsKC0xNjAsIDAlLCA5My4zMzMzMzMzMzMzJSk7fSNnZU1lcm1haWRPdXRwdXQtMTc1NjgwMjA0MDU1NyAucmVsYXRpb25zaGlwTGFiZWxCb3ggcmVjdHtvcGFjaXR5OjAuNTt9I2dlTWVybWFpZE91dHB1dC0xNzU2ODAyMDQwNTU3IC5yZWxhdGlvbnNoaXBMaW5le3N0cm9rZTojNjY2O30jZ2VNZXJtYWlkT3V0cHV0LTE3NTY4MDIwNDA1NTcgLmVudGl0eVRpdGxlVGV4dHt0ZXh0LWFuY2hvcjptaWRkbGU7Zm9udC1zaXplOjE4cHg7ZmlsbDojMDAwMDAwO30jZ2VNZXJtYWlkT3V0cHV0LTE3NTY4MDIwNDA1NTcgI01EX1BBUkVOVF9TVEFSVHtmaWxsOiNmNWY1ZjUhaW1wb3J0YW50O3N0cm9rZTojNjY2IWltcG9ydGFudDtzdHJva2Utd2lkdGg6MTt9I2dlTWVybWFpZE91dHB1dC0xNzU2ODAyMDQwNTU3ICNNRF9QQVJFTlRfRU5Ee2ZpbGw6I2Y1ZjVmNSFpbXBvcnRhbnQ7c3Ryb2tlOiM2NjYhaW1wb3J0YW50O3N0cm9rZS13aWR0aDoxO30jZ2VNZXJtYWlkT3V0cHV0LTE3NTY4MDIwNDA1NTcgOnJvb3R7LS1tZXJtYWlkLWZvbnQtZmFtaWx5OiJ0cmVidWNoZXQgbXMiLHZlcmRhbmEsYXJpYWwsc2Fucy1zZXJpZjt9PC9zdHlsZT48Zz48L2c+PGRlZnM+PG1hcmtlciBvcmllbnQ9ImF1dG8iIG1hcmtlckhlaWdodD0iMjQwIiBtYXJrZXJXaWR0aD0iMTkwIiByZWZZPSI3IiByZWZYPSIwIiBpZD0iTURfUEFSRU5UX1NUQVJUIj48cGF0aCBkPSJNIDE4LDcgTDksMTMgTDEsNyBMOSwxIFoiPjwvcGF0aD48L21hcmtlcj48L2RlZnM+PGRlZnM+PG1hcmtlciBvcmllbnQ9ImF1dG8iIG1hcmtlckhlaWdodD0iMjgiIG1hcmtlcldpZHRoPSIyMCIgcmVmWT0iNyIgcmVmWD0iMTkiIGlkPSJNRF9QQVJFTlRfRU5EIj48cGF0aCBkPSJNIDE4LDcgTDksMTMgTDEsNyBMOSwxIFoiPjwvcGF0aD48L21hcmtlcj48L2RlZnM+PGRlZnM+PG1hcmtlciBvcmllbnQ9ImF1dG8iIG1hcmtlckhlaWdodD0iMTgiIG1hcmtlcldpZHRoPSIxOCIgcmVmWT0iOSIgcmVmWD0iMCIgaWQ9Ik9OTFlfT05FX1NUQVJUIj48cGF0aCBkPSJNOSwwIEw5LDE4IE0xNSwwIEwxNSwxOCIgZmlsbD0ibm9uZSIgc3Ryb2tlPSJncmF5Ij48L3BhdGg+PC9tYXJrZXI+PC9kZWZzPjxkZWZzPjxtYXJrZXIgb3JpZW50PSJhdXRvIiBtYXJrZXJIZWlnaHQ9IjE4IiBtYXJrZXJXaWR0aD0iMTgiIHJlZlk9IjkiIHJlZlg9IjE4IiBpZD0iT05MWV9PTkVfRU5EIj48cGF0aCBkPSJNMywwIEwzLDE4IE05LDAgTDksMTgiIGZpbGw9Im5vbmUiIHN0cm9rZT0iZ3JheSI+PC9wYXRoPjwvbWFya2VyPjwvZGVmcz48ZGVmcz48bWFya2VyIG9yaWVudD0iYXV0byIgbWFya2VySGVpZ2h0PSIxOCIgbWFya2VyV2lkdGg9IjMwIiByZWZZPSI5IiByZWZYPSIwIiBpZD0iWkVST19PUl9PTkVfU1RBUlQiPjxjaXJjbGUgcj0iNiIgY3k9IjkiIGN4PSIyMSIgZmlsbD0id2hpdGUiIHN0cm9rZT0iZ3JheSI+PC9jaXJjbGU+PHBhdGggZD0iTTksMCBMOSwxOCIgZmlsbD0ibm9uZSIgc3Ryb2tlPSJncmF5Ij48L3BhdGg+PC9tYXJrZXI+PC9kZWZzPjxkZWZzPjxtYXJrZXIgb3JpZW50PSJhdXRvIiBtYXJrZXJIZWlnaHQ9IjE4IiBtYXJrZXJXaWR0aD0iMzAiIHJlZlk9IjkiIHJlZlg9IjMwIiBpZD0iWkVST19PUl9PTkVfRU5EIj48Y2lyY2xlIHI9IjYiIGN5PSI5IiBjeD0iOSIgZmlsbD0id2hpdGUiIHN0cm9rZT0iZ3JheSI+PC9jaXJjbGU+PHBhdGggZD0iTTIxLDAgTDIxLDE4IiBmaWxsPSJub25lIiBzdHJva2U9ImdyYXkiPjwvcGF0aD48L21hcmtlcj48L2RlZnM+PGRlZnM+PG1hcmtlciBvcmllbnQ9ImF1dG8iIG1hcmtlckhlaWdodD0iMzYiIG1hcmtlcldpZHRoPSI0NSIgcmVmWT0iMTgiIHJlZlg9IjE4IiBpZD0iT05FX09SX01PUkVfU1RBUlQiPjxwYXRoIGQ9Ik0wLDE4IFEgMTgsMCAzNiwxOCBRIDE4LDM2IDAsMTggTTQyLDkgTDQyLDI3IiBmaWxsPSJub25lIiBzdHJva2U9ImdyYXkiPjwvcGF0aD48L21hcmtlcj48L2RlZnM+PGRlZnM+PG1hcmtlciBvcmllbnQ9ImF1dG8iIG1hcmtlckhlaWdodD0iMzYiIG1hcmtlcldpZHRoPSI0NSIgcmVmWT0iMTgiIHJlZlg9IjI3IiBpZD0iT05FX09SX01PUkVfRU5EIj48cGF0aCBkPSJNMyw5IEwzLDI3IE05LDE4IFEyNywwIDQ1LDE4IFEyNywzNiA5LDE4IiBmaWxsPSJub25lIiBzdHJva2U9ImdyYXkiPjwvcGF0aD48L21hcmtlcj48L2RlZnM+PGRlZnM+PG1hcmtlciBvcmllbnQ9ImF1dG8iIG1hcmtlckhlaWdodD0iMzYiIG1hcmtlcldpZHRoPSI1NyIgcmVmWT0iMTgiIHJlZlg9IjE4IiBpZD0iWkVST19PUl9NT1JFX1NUQVJUIj48Y2lyY2xlIHI9IjYiIGN5PSIxOCIgY3g9IjQ4IiBmaWxsPSJ3aGl0ZSIgc3Ryb2tlPSJncmF5Ij48L2NpcmNsZT48cGF0aCBkPSJNMCwxOCBRMTgsMCAzNiwxOCBRMTgsMzYgMCwxOCIgZmlsbD0ibm9uZSIgc3Ryb2tlPSJncmF5Ij48L3BhdGg+PC9tYXJrZXI+PC9kZWZzPjxkZWZzPjxtYXJrZXIgb3JpZW50PSJhdXRvIiBtYXJrZXJIZWlnaHQ9IjM2IiBtYXJrZXJXaWR0aD0iNTciIHJlZlk9IjE4IiByZWZYPSIzOSIgaWQ9IlpFUk9fT1JfTU9SRV9FTkQiPjxjaXJjbGUgcj0iNiIgY3k9IjE4IiBjeD0iOSIgZmlsbD0id2hpdGUiIHN0cm9rZT0iZ3JheSI+PC9jaXJjbGU+PHBhdGggZD0iTTIxLDE4IFEzOSwwIDU3LDE4IFEzOSwzNiAyMSwxOCIgZmlsbD0ibm9uZSIgc3Ryb2tlPSJncmF5Ij48L3BhdGg+PC9tYXJrZXI+PC9kZWZzPjxwYXRoIHN0eWxlPSJzdHJva2U6IGdyYXk7IGZpbGw6IG5vbmU7IiBtYXJrZXItc3RhcnQ9InVybCgjT05MWV9PTkVfU1RBUlQpIiBtYXJrZXItZW5kPSJ1cmwoI1pFUk9fT1JfTU9SRV9FTkQpIiBkPSJNMzQ5LjQ0OCw5Ny41OTlMMzAyLjk2NSwxMTEuNjY2QzI1Ni40ODIsMTI1LjczMiwxNjMuNTE2LDE1My44NjYsMTE3LjAzNCwxNzkuOTMzQzcwLjU1MSwyMDYsNzAuNTUxLDIzMCw3MC41NTEsMjQyTDcwLjU1MSwyNTQiIGNsYXNzPSJlciByZWxhdGlvbnNoaXBMaW5lIj48L3BhdGg+PHBhdGggc3R5bGU9InN0cm9rZTogZ3JheTsgZmlsbDogbm9uZTsiIG1hcmtlci1zdGFydD0idXJsKCNPTkxZX09ORV9TVEFSVCkiIG1hcmtlci1lbmQ9InVybCgjWkVST19PUl9NT1JFX0VORCkiIGQ9Ik0zNTguNTMsMTMyTDM0OS4yNiwxNDAuMzMzQzMzOS45OTEsMTQ4LjY2NywzMjEuNDUzLDE2NS4zMzMsMzEyLjE4NCwxODUuNjY3QzMwMi45MTQsMjA2LDMwMi45MTQsMjMwLDMwMi45MTQsMjQyTDMwMi45MTQsMjU0IiBjbGFzcz0iZXIgcmVsYXRpb25zaGlwTGluZSI+PC9wYXRoPjxwYXRoIHN0eWxlPSJzdHJva2U6IGdyYXk7IGZpbGw6IG5vbmU7IiBtYXJrZXItc3RhcnQ9InVybCgjT05MWV9PTkVfU1RBUlQpIiBtYXJrZXItZW5kPSJ1cmwoI1pFUk9fT1JfTU9SRV9FTkQpIiBkPSJNNDg3LjkxNCwxMzJMNDk3Ljg5OCwxNDAuMzMzQzUwNy44ODIsMTQ4LjY2Nyw1MjcuODUxLDE2NS4zMzMsNTM3LjgzNSwxODJDNTQ3LjgyLDE5OC42NjcsNTQ3LjgyLDIxNS4zMzMsNTQ3LjgyLDIyMy42NjdMNTQ3LjgyLDIzMiIgY2xhc3M9ImVyIHJlbGF0aW9uc2hpcExpbmUiPjwvcGF0aD48cGF0aCBzdHlsZT0ic3Ryb2tlOiBncmF5OyBmaWxsOiBub25lOyIgbWFya2VyLXN0YXJ0PSJ1cmwoI09OTFlfT05FX1NUQVJUKSIgbWFya2VyLWVuZD0idXJsKCNaRVJPX09SX01PUkVfRU5EKSIgZD0iTTQ5Mi4xOSw5Ny43NjFMNTM4LjIzNywxMTEuODAxQzU4NC4yODUsMTI1Ljg0MSw2NzYuMzgsMTUzLjkyLDcyMi40MjcsMTg5LjI5NEM3NjguNDc0LDIyNC42NjcsNzY4LjQ3NCwyNjcuMzMzLDc2OC40NzQsMzEwQzc2OC40NzQsMzUyLjY2Nyw3NjguNDc0LDM5NS4zMzMsNzY4LjQ3NCw0MjVDNzY4LjQ3NCw0NTQuNjY3LDc2OC40NzQsNDcxLjMzMyw3NjguNDc0LDQ3OS42NjdMNzY4LjQ3NCw0ODgiIGNsYXNzPSJlciByZWxhdGlvbnNoaXBMaW5lIj48L3BhdGg+PHBhdGggc3R5bGU9InN0cm9rZTogZ3JheTsgZmlsbDogbm9uZTsiIG1hcmtlci1zdGFydD0idXJsKCNPTkxZX09ORV9TVEFSVCkiIG1hcmtlci1lbmQ9InVybCgjT05FX09SX01PUkVfRU5EKSIgZD0iTTcwLjU1MSwzNjZMNzAuNTUxLDM3OEM3MC41NTEsMzkwLDcwLjU1MSw0MTQsNzUuMzQ2LDQzNi4xNjdDODAuMTQyLDQ1OC4zMzMsODkuNzMzLDQ3OC42NjcsOTQuNTI5LDQ4OC44MzNMOTkuMzI0LDQ5OSIgY2xhc3M9ImVyIHJlbGF0aW9uc2hpcExpbmUiPjwvcGF0aD48cGF0aCBzdHlsZT0ic3Ryb2tlOiBncmF5OyBmaWxsOiBub25lOyIgbWFya2VyLXN0YXJ0PSJ1cmwoI09OTFlfT05FX1NUQVJUKSIgbWFya2VyLWVuZD0idXJsKCNPTkVfT1JfTU9SRV9FTkQpIiBkPSJNMjY5LjMzMSwzNjZMMjYyLjEzNSwzNzhDMjU0LjkzOCwzOTAsMjQwLjU0NSw0MTQsMjIzLjIyLDQzNi4xNjdDMjA1Ljg5Niw0NTguMzMzLDE4NS42MzksNDc4LjY2NywxNzUuNTEsNDg4LjgzM0wxNjUuMzgyLDQ5OSIgY2xhc3M9ImVyIHJlbGF0aW9uc2hpcExpbmUiPjwvcGF0aD48cGF0aCBzdHlsZT0ic3Ryb2tlOiBncmF5OyBmaWxsOiBub25lOyIgbWFya2VyLXN0YXJ0PSJ1cmwoI09OTFlfT05FX1NUQVJUKSIgbWFya2VyLWVuZD0idXJsKCNPTkVfT1JfTU9SRV9FTkQpIiBkPSJNMzI0Ljc4OSwzNjZMMzI5LjQ3NywzNzhDMzM0LjE2NCwzOTAsMzQzLjUzOSw0MTQsMzQ4LjIyNyw0NDMuNjY3QzM1Mi45MTQsNDczLjMzMywzNTIuOTE0LDUwOC42NjcsMzUyLjkxNCw1NDRDMzUyLjkxNCw1NzkuMzMzLDM1Mi45MTQsNjE0LjY2NywzNTYuODg2LDY0Mi41QzM2MC44NTcsNjcwLjMzMywzNjguOCw2OTAuNjY3LDM3Mi43NzEsNzAwLjgzM0wzNzYuNzQyLDcxMSIgY2xhc3M9ImVyIHJlbGF0aW9uc2hpcExpbmUiPjwvcGF0aD48cGF0aCBzdHlsZT0ic3Ryb2tlOiBncmF5OyBmaWxsOiBub25lOyIgbWFya2VyLXN0YXJ0PSJ1cmwoI09OTFlfT05FX1NUQVJUKSIgbWFya2VyLWVuZD0idXJsKCNPTkVfT1JfTU9SRV9FTkQpIiBkPSJNNTE4Ljk5Miw1ODlMNTEyLjQ4LDU5OS4xNjdDNTA1Ljk2Nyw2MDkuMzMzLDQ5Mi45NDEsNjI5LjY2Nyw0ODAuMzEyLDY1MEM0NjcuNjgzLDY3MC4zMzMsNDU1LjQ1MSw2OTAuNjY3LDQ0OS4zMzYsNzAwLjgzM0w0NDMuMjIsNzExIiBjbGFzcz0iZXIgcmVsYXRpb25zaGlwTGluZSI+PC9wYXRoPjxwYXRoIHN0eWxlPSJzdHJva2U6IGdyYXk7IGZpbGw6IG5vbmU7IiBtYXJrZXItc3RhcnQ9InVybCgjT05MWV9PTkVfU1RBUlQpIiBtYXJrZXItZW5kPSJ1cmwoI09ORV9PUl9NT1JFX0VORCkiIGQ9Ik03NjguNDc0LDYwMEw3NjguNDc0LDYwOC4zMzNDNzY4LjQ3NCw2MTYuNjY3LDc2OC40NzQsNjMzLjMzMyw3NjUuMjE5LDY1MEM3NjEuOTY0LDY2Ni42NjcsNzU1LjQ1Myw2ODMuMzMzLDc1Mi4xOTgsNjkxLjY2N0w3NDguOTQzLDcwMCIgY2xhc3M9ImVyIHJlbGF0aW9uc2hpcExpbmUiPjwvcGF0aD48cGF0aCBzdHlsZT0ic3Ryb2tlOiBncmF5OyBmaWxsOiBub25lOyIgbWFya2VyLXN0YXJ0PSJ1cmwoI09OTFlfT05FX1NUQVJUKSIgbWFya2VyLWVuZD0idXJsKCNPTkVfT1JfTU9SRV9FTkQpIiBkPSJNNTczLjQzLDU4OUw1NzkuMjE3LDU5OS4xNjdDNTg1LjAwMyw2MDkuMzMzLDU5Ni41NzUsNjI5LjY2Nyw2MDkuNTQ0LDY0OC4xNjdDNjIyLjUxMyw2NjYuNjY3LDYzNi44NzgsNjgzLjMzMyw2NDQuMDYxLDY5MS42NjdMNjUxLjI0NCw3MDAiIGNsYXNzPSJlciByZWxhdGlvbnNoaXBMaW5lIj48L3BhdGg+PHBhdGggc3R5bGU9InN0cm9rZTogZ3JheTsgZmlsbDogbm9uZTsiIG1hcmtlci1zdGFydD0idXJsKCNPTkVfT1JfTU9SRV9TVEFSVCkiIG1hcmtlci1lbmQ9InVybCgjT05MWV9PTkVfRU5EKSIgZD0iTTU0Ny44MiwzODhMNTQ3LjgyLDM5Ni4zMzNDNTQ3LjgyLDQwNC42NjcsNTQ3LjgyLDQyMS4zMzMsNTQ3LjgyLDQzOS44MzNDNTQ3LjgyLDQ1OC4zMzMsNTQ3LjgyLDQ3OC42NjcsNTQ3LjgyLDQ4OC44MzNMNTQ3LjgyLDQ5OSIgY2xhc3M9ImVyIHJlbGF0aW9uc2hpcExpbmUiPjwvcGF0aD48ZyB0cmFuc2Zvcm09InRyYW5zbGF0ZSgzNDkuNDQ3NTA1OTUwOTI3NzMsMjAgKSIgaWQ9ImVudGl0eS11c2Vycy0zM2FlMWUyNi1iZTMxLTVjMWQtYmY2NS1lODU5ZTlkMDMwOGUiPjxyZWN0IGhlaWdodD0iMTEyIiB3aWR0aD0iMTQyLjc0MjM3ODIzNDg2MzI4IiB5PSIwIiB4PSIwIiBjbGFzcz0iZXIgZW50aXR5Qm94Ij48L3JlY3Q+PHRleHQgc3R5bGU9ImRvbWluYW50LWJhc2VsaW5lOiBtaWRkbGU7IHRleHQtYW5jaG9yOiBtaWRkbGU7IGZvbnQtc2l6ZTogMTJweDsiIHRyYW5zZm9ybT0idHJhbnNsYXRlKDcxLjM3MTE4OTExNzQzMTY0LDEyKSIgeT0iMCIgeD0iMCIgaWQ9InRleHQtZW50aXR5LXVzZXJzLTMzYWUxZTI2LWJlMzEtNWMxZC1iZjY1LWU4NTllOWQwMzA4ZSIgY2xhc3M9ImVyIGVudGl0eUxhYmVsIj51c2VyczwvdGV4dD48cmVjdCBoZWlnaHQ9IjIyIiB3aWR0aD0iMzYuMjQyMTg3NSIgeT0iMjQiIHg9IjAiIGNsYXNzPSJlciBhdHRyaWJ1dGVCb3hPZGQiPjwvcmVjdD48dGV4dCBzdHlsZT0iZG9taW5hbnQtYmFzZWxpbmU6IG1pZGRsZTsgZm9udC1zaXplOiAxMC4ycHg7IiB0cmFuc2Zvcm09InRyYW5zbGF0ZSg1LDM1KSIgeT0iMCIgeD0iMCIgaWQ9InRleHQtZW50aXR5LXVzZXJzLTMzYWUxZTI2LWJlMzEtNWMxZC1iZjY1LWU4NTllOWQwMzA4ZS1hdHRyLTEtdHlwZSIgY2xhc3M9ImVyIGVudGl0eUxhYmVsIj5iaWdpbnQ8L3RleHQ+PHJlY3QgaGVpZ2h0PSIyMiIgd2lkdGg9Ijg0LjgxMjUiIHk9IjI0IiB4PSIzNi4yNDIxODc1IiBjbGFzcz0iZXIgYXR0cmlidXRlQm94T2RkIj48L3JlY3Q+PHRleHQgc3R5bGU9ImRvbWluYW50LWJhc2VsaW5lOiBtaWRkbGU7IGZvbnQtc2l6ZTogMTAuMnB4OyIgdHJhbnNmb3JtPSJ0cmFuc2xhdGUoNDEuMjQyMTg3NSwzNSkiIHk9IjAiIHg9IjAiIGlkPSJ0ZXh0LWVudGl0eS11c2Vycy0zM2FlMWUyNi1iZTMxLTVjMWQtYmY2NS1lODU5ZTlkMDMwOGUtYXR0ci0xLW5hbWUiIGNsYXNzPSJlciBlbnRpdHlMYWJlbCI+aWQ8L3RleHQ+PHJlY3QgaGVpZ2h0PSIyMiIgd2lkdGg9IjIxLjY4NzY5MDczNDg2MzI4IiB5PSIyNCIgeD0iMTIxLjA1NDY4NzUiIGNsYXNzPSJlciBhdHRyaWJ1dGVCb3hPZGQiPjwvcmVjdD48dGV4dCBzdHlsZT0iZG9taW5hbnQtYmFzZWxpbmU6IG1pZGRsZTsgZm9udC1zaXplOiAxMC4ycHg7IiB0cmFuc2Zvcm09InRyYW5zbGF0ZSgxMjYuMDU0Njg3NSwzNSkiIHk9IjAiIHg9IjAiIGlkPSJ0ZXh0LWVudGl0eS11c2Vycy0zM2FlMWUyNi1iZTMxLTVjMWQtYmY2NS1lODU5ZTlkMDMwOGUtYXR0ci0xLWtleSIgY2xhc3M9ImVyIGVudGl0eUxhYmVsIj5QSzwvdGV4dD48cmVjdCBoZWlnaHQ9IjIyIiB3aWR0aD0iMzYuMjQyMTg3NSIgeT0iNDYiIHg9IjAiIGNsYXNzPSJlciBhdHRyaWJ1dGVCb3hFdmVuIj48L3JlY3Q+PHRleHQgc3R5bGU9ImRvbWluYW50LWJhc2VsaW5lOiBtaWRkbGU7IGZvbnQtc2l6ZTogMTAuMnB4OyIgdHJhbnNmb3JtPSJ0cmFuc2xhdGUoNSw1NykiIHk9IjAiIHg9IjAiIGlkPSJ0ZXh0LWVudGl0eS11c2Vycy0zM2FlMWUyNi1iZTMxLTVjMWQtYmY2NS1lODU5ZTlkMDMwOGUtYXR0ci0yLXR5cGUiIGNsYXNzPSJlciBlbnRpdHlMYWJlbCI+c3RyaW5nPC90ZXh0PjxyZWN0IGhlaWdodD0iMjIiIHdpZHRoPSI4NC44MTI1IiB5PSI0NiIgeD0iMzYuMjQyMTg3NSIgY2xhc3M9ImVyIGF0dHJpYnV0ZUJveEV2ZW4iPjwvcmVjdD48dGV4dCBzdHlsZT0iZG9taW5hbnQtYmFzZWxpbmU6IG1pZGRsZTsgZm9udC1zaXplOiAxMC4ycHg7IiB0cmFuc2Zvcm09InRyYW5zbGF0ZSg0MS4yNDIxODc1LDU3KSIgeT0iMCIgeD0iMCIgaWQ9InRleHQtZW50aXR5LXVzZXJzLTMzYWUxZTI2LWJlMzEtNWMxZC1iZjY1LWU4NTllOWQwMzA4ZS1hdHRyLTItbmFtZSIgY2xhc3M9ImVyIGVudGl0eUxhYmVsIj5uYW1lPC90ZXh0PjxyZWN0IGhlaWdodD0iMjIiIHdpZHRoPSIyMS42ODc2OTA3MzQ4NjMyOCIgeT0iNDYiIHg9IjEyMS4wNTQ2ODc1IiBjbGFzcz0iZXIgYXR0cmlidXRlQm94RXZlbiI+PC9yZWN0Pjx0ZXh0IHN0eWxlPSJkb21pbmFudC1iYXNlbGluZTogbWlkZGxlOyBmb250LXNpemU6IDEwLjJweDsiIHRyYW5zZm9ybT0idHJhbnNsYXRlKDEyNi4wNTQ2ODc1LDU3KSIgeT0iMCIgeD0iMCIgaWQ9InRleHQtZW50aXR5LXVzZXJzLTMzYWUxZTI2LWJlMzEtNWMxZC1iZjY1LWU4NTllOWQwMzA4ZS1hdHRyLTIta2V5IiBjbGFzcz0iZXIgZW50aXR5TGFiZWwiPjwvdGV4dD48cmVjdCBoZWlnaHQ9IjIyIiB3aWR0aD0iMzYuMjQyMTg3NSIgeT0iNjgiIHg9IjAiIGNsYXNzPSJlciBhdHRyaWJ1dGVCb3hPZGQiPjwvcmVjdD48dGV4dCBzdHlsZT0iZG9taW5hbnQtYmFzZWxpbmU6IG1pZGRsZTsgZm9udC1zaXplOiAxMC4ycHg7IiB0cmFuc2Zvcm09InRyYW5zbGF0ZSg1LDc5KSIgeT0iMCIgeD0iMCIgaWQ9InRleHQtZW50aXR5LXVzZXJzLTMzYWUxZTI2LWJlMzEtNWMxZC1iZjY1LWU4NTllOWQwMzA4ZS1hdHRyLTMtdHlwZSIgY2xhc3M9ImVyIGVudGl0eUxhYmVsIj5zdHJpbmc8L3RleHQ+PHJlY3QgaGVpZ2h0PSIyMiIgd2lkdGg9Ijg0LjgxMjUiIHk9IjY4IiB4PSIzNi4yNDIxODc1IiBjbGFzcz0iZXIgYXR0cmlidXRlQm94T2RkIj48L3JlY3Q+PHRleHQgc3R5bGU9ImRvbWluYW50LWJhc2VsaW5lOiBtaWRkbGU7IGZvbnQtc2l6ZTogMTAuMnB4OyIgdHJhbnNmb3JtPSJ0cmFuc2xhdGUoNDEuMjQyMTg3NSw3OSkiIHk9IjAiIHg9IjAiIGlkPSJ0ZXh0LWVudGl0eS11c2Vycy0zM2FlMWUyNi1iZTMxLTVjMWQtYmY2NS1lODU5ZTlkMDMwOGUtYXR0ci0zLW5hbWUiIGNsYXNzPSJlciBlbnRpdHlMYWJlbCI+ZW1haWw8L3RleHQ+PHJlY3QgaGVpZ2h0PSIyMiIgd2lkdGg9IjIxLjY4NzY5MDczNDg2MzI4IiB5PSI2OCIgeD0iMTIxLjA1NDY4NzUiIGNsYXNzPSJlciBhdHRyaWJ1dGVCb3hPZGQiPjwvcmVjdD48dGV4dCBzdHlsZT0iZG9taW5hbnQtYmFzZWxpbmU6IG1pZGRsZTsgZm9udC1zaXplOiAxMC4ycHg7IiB0cmFuc2Zvcm09InRyYW5zbGF0ZSgxMjYuMDU0Njg3NSw3OSkiIHk9IjAiIHg9IjAiIGlkPSJ0ZXh0LWVudGl0eS11c2Vycy0zM2FlMWUyNi1iZTMxLTVjMWQtYmY2NS1lODU5ZTlkMDMwOGUtYXR0ci0zLWtleSIgY2xhc3M9ImVyIGVudGl0eUxhYmVsIj48L3RleHQ+PHJlY3QgaGVpZ2h0PSIyMiIgd2lkdGg9IjM2LjI0MjE4NzUiIHk9IjkwIiB4PSIwIiBjbGFzcz0iZXIgYXR0cmlidXRlQm94RXZlbiI+PC9yZWN0Pjx0ZXh0IHN0eWxlPSJkb21pbmFudC1iYXNlbGluZTogbWlkZGxlOyBmb250LXNpemU6IDEwLjJweDsiIHRyYW5zZm9ybT0idHJhbnNsYXRlKDUsMTAxKSIgeT0iMCIgeD0iMCIgaWQ9InRleHQtZW50aXR5LXVzZXJzLTMzYWUxZTI2LWJlMzEtNWMxZC1iZjY1LWU4NTllOWQwMzA4ZS1hdHRyLTQtdHlwZSIgY2xhc3M9ImVyIGVudGl0eUxhYmVsIj5zdHJpbmc8L3RleHQ+PHJlY3QgaGVpZ2h0PSIyMiIgd2lkdGg9Ijg0LjgxMjUiIHk9IjkwIiB4PSIzNi4yNDIxODc1IiBjbGFzcz0iZXIgYXR0cmlidXRlQm94RXZlbiI+PC9yZWN0Pjx0ZXh0IHN0eWxlPSJkb21pbmFudC1iYXNlbGluZTogbWlkZGxlOyBmb250LXNpemU6IDEwLjJweDsiIHRyYW5zZm9ybT0idHJhbnNsYXRlKDQxLjI0MjE4NzUsMTAxKSIgeT0iMCIgeD0iMCIgaWQ9InRleHQtZW50aXR5LXVzZXJzLTMzYWUxZTI2LWJlMzEtNWMxZC1iZjY1LWU4NTllOWQwMzA4ZS1hdHRyLTQtbmFtZSIgY2xhc3M9ImVyIGVudGl0eUxhYmVsIj5wYXNzd29yZF9kaWdlc3Q8L3RleHQ+PHJlY3QgaGVpZ2h0PSIyMiIgd2lkdGg9IjIxLjY4NzY5MDczNDg2MzI4IiB5PSI5MCIgeD0iMTIxLjA1NDY4NzUiIGNsYXNzPSJlciBhdHRyaWJ1dGVCb3hFdmVuIj48L3JlY3Q+PHRleHQgc3R5bGU9ImRvbWluYW50LWJhc2VsaW5lOiBtaWRkbGU7IGZvbnQtc2l6ZTogMTAuMnB4OyIgdHJhbnNmb3JtPSJ0cmFuc2xhdGUoMTI2LjA1NDY4NzUsMTAxKSIgeT0iMCIgeD0iMCIgaWQ9InRleHQtZW50aXR5LXVzZXJzLTMzYWUxZTI2LWJlMzEtNWMxZC1iZjY1LWU4NTllOWQwMzA4ZS1hdHRyLTQta2V5IiBjbGFzcz0iZXIgZW50aXR5TGFiZWwiPjwvdGV4dD48L2c+PGcgdHJhbnNmb3JtPSJ0cmFuc2xhdGUoNDkzLjgxNzYyNTA0NTc3NjM3LDQ5OSApIiBpZD0iZW50aXR5LWl0ZW1zLWEzZjk1MmE2LWQwNzQtNTIwNS1hYmYwLWU0ODMwMGY1MzlhOSI+PHJlY3QgaGVpZ2h0PSI5MCIgd2lkdGg9IjEwOC4wMDQyNjQ4MzE1NDI5NyIgeT0iMCIgeD0iMCIgY2xhc3M9ImVyIGVudGl0eUJveCI+PC9yZWN0Pjx0ZXh0IHN0eWxlPSJkb21pbmFudC1iYXNlbGluZTogbWlkZGxlOyB0ZXh0LWFuY2hvcjogbWlkZGxlOyBmb250LXNpemU6IDEycHg7IiB0cmFuc2Zvcm09InRyYW5zbGF0ZSg1NC4wMDIxMzI0MTU3NzE0ODQsMTIpIiB5PSIwIiB4PSIwIiBpZD0idGV4dC1lbnRpdHktaXRlbXMtYTNmOTUyYTYtZDA3NC01MjA1LWFiZjAtZTQ4MzAwZjUzOWE5IiBjbGFzcz0iZXIgZW50aXR5TGFiZWwiPml0ZW1zPC90ZXh0PjxyZWN0IGhlaWdodD0iMjIiIHdpZHRoPSIzNi4yNDIxODc1IiB5PSIyNCIgeD0iMCIgY2xhc3M9ImVyIGF0dHJpYnV0ZUJveE9kZCI+PC9yZWN0Pjx0ZXh0IHN0eWxlPSJkb21pbmFudC1iYXNlbGluZTogbWlkZGxlOyBmb250LXNpemU6IDEwLjJweDsiIHRyYW5zZm9ybT0idHJhbnNsYXRlKDUsMzUpIiB5PSIwIiB4PSIwIiBpZD0idGV4dC1lbnRpdHktaXRlbXMtYTNmOTUyYTYtZDA3NC01MjA1LWFiZjAtZTQ4MzAwZjUzOWE5LWF0dHItMS10eXBlIiBjbGFzcz0iZXIgZW50aXR5TGFiZWwiPmJpZ2ludDwvdGV4dD48cmVjdCBoZWlnaHQ9IjIyIiB3aWR0aD0iNTAuMDc0Mzg2NTk2Njc5NjkiIHk9IjI0IiB4PSIzNi4yNDIxODc1IiBjbGFzcz0iZXIgYXR0cmlidXRlQm94T2RkIj48L3JlY3Q+PHRleHQgc3R5bGU9ImRvbWluYW50LWJhc2VsaW5lOiBtaWRkbGU7IGZvbnQtc2l6ZTogMTAuMnB4OyIgdHJhbnNmb3JtPSJ0cmFuc2xhdGUoNDEuMjQyMTg3NSwzNSkiIHk9IjAiIHg9IjAiIGlkPSJ0ZXh0LWVudGl0eS1pdGVtcy1hM2Y5NTJhNi1kMDc0LTUyMDUtYWJmMC1lNDgzMDBmNTM5YTktYXR0ci0xLW5hbWUiIGNsYXNzPSJlciBlbnRpdHlMYWJlbCI+aWQ8L3RleHQ+PHJlY3QgaGVpZ2h0PSIyMiIgd2lkdGg9IjIxLjY4NzY5MDczNDg2MzI4IiB5PSIyNCIgeD0iODYuMzE2NTc0MDk2Njc5NjkiIGNsYXNzPSJlciBhdHRyaWJ1dGVCb3hPZGQiPjwvcmVjdD48dGV4dCBzdHlsZT0iZG9taW5hbnQtYmFzZWxpbmU6IG1pZGRsZTsgZm9udC1zaXplOiAxMC4ycHg7IiB0cmFuc2Zvcm09InRyYW5zbGF0ZSg5MS4zMTY1NzQwOTY2Nzk2OSwzNSkiIHk9IjAiIHg9IjAiIGlkPSJ0ZXh0LWVudGl0eS1pdGVtcy1hM2Y5NTJhNi1kMDc0LTUyMDUtYWJmMC1lNDgzMDBmNTM5YTktYXR0ci0xLWtleSIgY2xhc3M9ImVyIGVudGl0eUxhYmVsIj5QSzwvdGV4dD48cmVjdCBoZWlnaHQ9IjIyIiB3aWR0aD0iMzYuMjQyMTg3NSIgeT0iNDYiIHg9IjAiIGNsYXNzPSJlciBhdHRyaWJ1dGVCb3hFdmVuIj48L3JlY3Q+PHRleHQgc3R5bGU9ImRvbWluYW50LWJhc2VsaW5lOiBtaWRkbGU7IGZvbnQtc2l6ZTogMTAuMnB4OyIgdHJhbnNmb3JtPSJ0cmFuc2xhdGUoNSw1NykiIHk9IjAiIHg9IjAiIGlkPSJ0ZXh0LWVudGl0eS1pdGVtcy1hM2Y5NTJhNi1kMDc0LTUyMDUtYWJmMC1lNDgzMDBmNTM5YTktYXR0ci0yLXR5cGUiIGNsYXNzPSJlciBlbnRpdHlMYWJlbCI+c3RyaW5nPC90ZXh0PjxyZWN0IGhlaWdodD0iMjIiIHdpZHRoPSI1MC4wNzQzODY1OTY2Nzk2OSIgeT0iNDYiIHg9IjM2LjI0MjE4NzUiIGNsYXNzPSJlciBhdHRyaWJ1dGVCb3hFdmVuIj48L3JlY3Q+PHRleHQgc3R5bGU9ImRvbWluYW50LWJhc2VsaW5lOiBtaWRkbGU7IGZvbnQtc2l6ZTogMTAuMnB4OyIgdHJhbnNmb3JtPSJ0cmFuc2xhdGUoNDEuMjQyMTg3NSw1NykiIHk9IjAiIHg9IjAiIGlkPSJ0ZXh0LWVudGl0eS1pdGVtcy1hM2Y5NTJhNi1kMDc0LTUyMDUtYWJmMC1lNDgzMDBmNTM5YTktYXR0ci0yLW5hbWUiIGNsYXNzPSJlciBlbnRpdHlMYWJlbCI+bmFtZTwvdGV4dD48cmVjdCBoZWlnaHQ9IjIyIiB3aWR0aD0iMjEuNjg3NjkwNzM0ODYzMjgiIHk9IjQ2IiB4PSI4Ni4zMTY1NzQwOTY2Nzk2OSIgY2xhc3M9ImVyIGF0dHJpYnV0ZUJveEV2ZW4iPjwvcmVjdD48dGV4dCBzdHlsZT0iZG9taW5hbnQtYmFzZWxpbmU6IG1pZGRsZTsgZm9udC1zaXplOiAxMC4ycHg7IiB0cmFuc2Zvcm09InRyYW5zbGF0ZSg5MS4zMTY1NzQwOTY2Nzk2OSw1NykiIHk9IjAiIHg9IjAiIGlkPSJ0ZXh0LWVudGl0eS1pdGVtcy1hM2Y5NTJhNi1kMDc0LTUyMDUtYWJmMC1lNDgzMDBmNTM5YTktYXR0ci0yLWtleSIgY2xhc3M9ImVyIGVudGl0eUxhYmVsIj48L3RleHQ+PHJlY3QgaGVpZ2h0PSIyMiIgd2lkdGg9IjM2LjI0MjE4NzUiIHk9IjY4IiB4PSIwIiBjbGFzcz0iZXIgYXR0cmlidXRlQm94T2RkIj48L3JlY3Q+PHRleHQgc3R5bGU9ImRvbWluYW50LWJhc2VsaW5lOiBtaWRkbGU7IGZvbnQtc2l6ZTogMTAuMnB4OyIgdHJhbnNmb3JtPSJ0cmFuc2xhdGUoNSw3OSkiIHk9IjAiIHg9IjAiIGlkPSJ0ZXh0LWVudGl0eS1pdGVtcy1hM2Y5NTJhNi1kMDc0LTUyMDUtYWJmMC1lNDgzMDBmNTM5YTktYXR0ci0zLXR5cGUiIGNsYXNzPSJlciBlbnRpdHlMYWJlbCI+c3RyaW5nPC90ZXh0PjxyZWN0IGhlaWdodD0iMjIiIHdpZHRoPSI1MC4wNzQzODY1OTY2Nzk2OSIgeT0iNjgiIHg9IjM2LjI0MjE4NzUiIGNsYXNzPSJlciBhdHRyaWJ1dGVCb3hPZGQiPjwvcmVjdD48dGV4dCBzdHlsZT0iZG9taW5hbnQtYmFzZWxpbmU6IG1pZGRsZTsgZm9udC1zaXplOiAxMC4ycHg7IiB0cmFuc2Zvcm09InRyYW5zbGF0ZSg0MS4yNDIxODc1LDc5KSIgeT0iMCIgeD0iMCIgaWQ9InRleHQtZW50aXR5LWl0ZW1zLWEzZjk1MmE2LWQwNzQtNTIwNS1hYmYwLWU0ODMwMGY1MzlhOS1hdHRyLTMtbmFtZSIgY2xhc3M9ImVyIGVudGl0eUxhYmVsIj5jYXRlZ29yeTwvdGV4dD48cmVjdCBoZWlnaHQ9IjIyIiB3aWR0aD0iMjEuNjg3NjkwNzM0ODYzMjgiIHk9IjY4IiB4PSI4Ni4zMTY1NzQwOTY2Nzk2OSIgY2xhc3M9ImVyIGF0dHJpYnV0ZUJveE9kZCI+PC9yZWN0Pjx0ZXh0IHN0eWxlPSJkb21pbmFudC1iYXNlbGluZTogbWlkZGxlOyBmb250LXNpemU6IDEwLjJweDsiIHRyYW5zZm9ybT0idHJhbnNsYXRlKDkxLjMxNjU3NDA5NjY3OTY5LDc5KSIgeT0iMCIgeD0iMCIgaWQ9InRleHQtZW50aXR5LWl0ZW1zLWEzZjk1MmE2LWQwNzQtNTIwNS1hYmYwLWU0ODMwMGY1MzlhOS1hdHRyLTMta2V5IiBjbGFzcz0iZXIgZW50aXR5TGFiZWwiPjwvdGV4dD48L2c+PGcgdHJhbnNmb3JtPSJ0cmFuc2xhdGUoMjAsMjU0ICkiIGlkPSJlbnRpdHktbWVudXMtYmY1OTg1MDctMWM3OC01ZTY3LWE5YzItNmUxNjExOTlhZjY2Ij48cmVjdCBoZWlnaHQ9IjExMiIgd2lkdGg9IjEwMS4xMDE3NTMyMzQ4NjMyOCIgeT0iMCIgeD0iMCIgY2xhc3M9ImVyIGVudGl0eUJveCI+PC9yZWN0Pjx0ZXh0IHN0eWxlPSJkb21pbmFudC1iYXNlbGluZTogbWlkZGxlOyB0ZXh0LWFuY2hvcjogbWlkZGxlOyBmb250LXNpemU6IDEycHg7IiB0cmFuc2Zvcm09InRyYW5zbGF0ZSg1MC41NTA4NzY2MTc0MzE2NCwxMikiIHk9IjAiIHg9IjAiIGlkPSJ0ZXh0LWVudGl0eS1tZW51cy1iZjU5ODUwNy0xYzc4LTVlNjctYTljMi02ZTE2MTE5OWFmNjYiIGNsYXNzPSJlciBlbnRpdHlMYWJlbCI+bWVudXM8L3RleHQ+PHJlY3QgaGVpZ2h0PSIyMiIgd2lkdGg9IjM2LjI0MjE4NzUiIHk9IjI0IiB4PSIwIiBjbGFzcz0iZXIgYXR0cmlidXRlQm94T2RkIj48L3JlY3Q+PHRleHQgc3R5bGU9ImRvbWluYW50LWJhc2VsaW5lOiBtaWRkbGU7IGZvbnQtc2l6ZTogMTAuMnB4OyIgdHJhbnNmb3JtPSJ0cmFuc2xhdGUoNSwzNSkiIHk9IjAiIHg9IjAiIGlkPSJ0ZXh0LWVudGl0eS1tZW51cy1iZjU5ODUwNy0xYzc4LTVlNjctYTljMi02ZTE2MTE5OWFmNjYtYXR0ci0xLXR5cGUiIGNsYXNzPSJlciBlbnRpdHlMYWJlbCI+YmlnaW50PC90ZXh0PjxyZWN0IGhlaWdodD0iMjIiIHdpZHRoPSI0My4xNzE4NzUiIHk9IjI0IiB4PSIzNi4yNDIxODc1IiBjbGFzcz0iZXIgYXR0cmlidXRlQm94T2RkIj48L3JlY3Q+PHRleHQgc3R5bGU9ImRvbWluYW50LWJhc2VsaW5lOiBtaWRkbGU7IGZvbnQtc2l6ZTogMTAuMnB4OyIgdHJhbnNmb3JtPSJ0cmFuc2xhdGUoNDEuMjQyMTg3NSwzNSkiIHk9IjAiIHg9IjAiIGlkPSJ0ZXh0LWVudGl0eS1tZW51cy1iZjU5ODUwNy0xYzc4LTVlNjctYTljMi02ZTE2MTE5OWFmNjYtYXR0ci0xLW5hbWUiIGNsYXNzPSJlciBlbnRpdHlMYWJlbCI+aWQ8L3RleHQ+PHJlY3QgaGVpZ2h0PSIyMiIgd2lkdGg9IjIxLjY4NzY5MDczNDg2MzI4IiB5PSIyNCIgeD0iNzkuNDE0MDYyNSIgY2xhc3M9ImVyIGF0dHJpYnV0ZUJveE9kZCI+PC9yZWN0Pjx0ZXh0IHN0eWxlPSJkb21pbmFudC1iYXNlbGluZTogbWlkZGxlOyBmb250LXNpemU6IDEwLjJweDsiIHRyYW5zZm9ybT0idHJhbnNsYXRlKDg0LjQxNDA2MjUsMzUpIiB5PSIwIiB4PSIwIiBpZD0idGV4dC1lbnRpdHktbWVudXMtYmY1OTg1MDctMWM3OC01ZTY3LWE5YzItNmUxNjExOTlhZjY2LWF0dHItMS1rZXkiIGNsYXNzPSJlciBlbnRpdHlMYWJlbCI+UEs8L3RleHQ+PHJlY3QgaGVpZ2h0PSIyMiIgd2lkdGg9IjM2LjI0MjE4NzUiIHk9IjQ2IiB4PSIwIiBjbGFzcz0iZXIgYXR0cmlidXRlQm94RXZlbiI+PC9yZWN0Pjx0ZXh0IHN0eWxlPSJkb21pbmFudC1iYXNlbGluZTogbWlkZGxlOyBmb250LXNpemU6IDEwLjJweDsiIHRyYW5zZm9ybT0idHJhbnNsYXRlKDUsNTcpIiB5PSIwIiB4PSIwIiBpZD0idGV4dC1lbnRpdHktbWVudXMtYmY1OTg1MDctMWM3OC01ZTY3LWE5YzItNmUxNjExOTlhZjY2LWF0dHItMi10eXBlIiBjbGFzcz0iZXIgZW50aXR5TGFiZWwiPmJpZ2ludDwvdGV4dD48cmVjdCBoZWlnaHQ9IjIyIiB3aWR0aD0iNDMuMTcxODc1IiB5PSI0NiIgeD0iMzYuMjQyMTg3NSIgY2xhc3M9ImVyIGF0dHJpYnV0ZUJveEV2ZW4iPjwvcmVjdD48dGV4dCBzdHlsZT0iZG9taW5hbnQtYmFzZWxpbmU6IG1pZGRsZTsgZm9udC1zaXplOiAxMC4ycHg7IiB0cmFuc2Zvcm09InRyYW5zbGF0ZSg0MS4yNDIxODc1LDU3KSIgeT0iMCIgeD0iMCIgaWQ9InRleHQtZW50aXR5LW1lbnVzLWJmNTk4NTA3LTFjNzgtNWU2Ny1hOWMyLTZlMTYxMTk5YWY2Ni1hdHRyLTItbmFtZSIgY2xhc3M9ImVyIGVudGl0eUxhYmVsIj51c2VyX2lkPC90ZXh0PjxyZWN0IGhlaWdodD0iMjIiIHdpZHRoPSIyMS42ODc2OTA3MzQ4NjMyOCIgeT0iNDYiIHg9Ijc5LjQxNDA2MjUiIGNsYXNzPSJlciBhdHRyaWJ1dGVCb3hFdmVuIj48L3JlY3Q+PHRleHQgc3R5bGU9ImRvbWluYW50LWJhc2VsaW5lOiBtaWRkbGU7IGZvbnQtc2l6ZTogMTAuMnB4OyIgdHJhbnNmb3JtPSJ0cmFuc2xhdGUoODQuNDE0MDYyNSw1NykiIHk9IjAiIHg9IjAiIGlkPSJ0ZXh0LWVudGl0eS1tZW51cy1iZjU5ODUwNy0xYzc4LTVlNjctYTljMi02ZTE2MTE5OWFmNjYtYXR0ci0yLWtleSIgY2xhc3M9ImVyIGVudGl0eUxhYmVsIj5GSzwvdGV4dD48cmVjdCBoZWlnaHQ9IjIyIiB3aWR0aD0iMzYuMjQyMTg3NSIgeT0iNjgiIHg9IjAiIGNsYXNzPSJlciBhdHRyaWJ1dGVCb3hPZGQiPjwvcmVjdD48dGV4dCBzdHlsZT0iZG9taW5hbnQtYmFzZWxpbmU6IG1pZGRsZTsgZm9udC1zaXplOiAxMC4ycHg7IiB0cmFuc2Zvcm09InRyYW5zbGF0ZSg1LDc5KSIgeT0iMCIgeD0iMCIgaWQ9InRleHQtZW50aXR5LW1lbnVzLWJmNTk4NTA3LTFjNzgtNWU2Ny1hOWMyLTZlMTYxMTk5YWY2Ni1hdHRyLTMtdHlwZSIgY2xhc3M9ImVyIGVudGl0eUxhYmVsIj5zdHJpbmc8L3RleHQ+PHJlY3QgaGVpZ2h0PSIyMiIgd2lkdGg9IjQzLjE3MTg3NSIgeT0iNjgiIHg9IjM2LjI0MjE4NzUiIGNsYXNzPSJlciBhdHRyaWJ1dGVCb3hPZGQiPjwvcmVjdD48dGV4dCBzdHlsZT0iZG9taW5hbnQtYmFzZWxpbmU6IG1pZGRsZTsgZm9udC1zaXplOiAxMC4ycHg7IiB0cmFuc2Zvcm09InRyYW5zbGF0ZSg0MS4yNDIxODc1LDc5KSIgeT0iMCIgeD0iMCIgaWQ9InRleHQtZW50aXR5LW1lbnVzLWJmNTk4NTA3LTFjNzgtNWU2Ny1hOWMyLTZlMTYxMTk5YWY2Ni1hdHRyLTMtbmFtZSIgY2xhc3M9ImVyIGVudGl0eUxhYmVsIj5uYW1lPC90ZXh0PjxyZWN0IGhlaWdodD0iMjIiIHdpZHRoPSIyMS42ODc2OTA3MzQ4NjMyOCIgeT0iNjgiIHg9Ijc5LjQxNDA2MjUiIGNsYXNzPSJlciBhdHRyaWJ1dGVCb3hPZGQiPjwvcmVjdD48dGV4dCBzdHlsZT0iZG9taW5hbnQtYmFzZWxpbmU6IG1pZGRsZTsgZm9udC1zaXplOiAxMC4ycHg7IiB0cmFuc2Zvcm09InRyYW5zbGF0ZSg4NC40MTQwNjI1LDc5KSIgeT0iMCIgeD0iMCIgaWQ9InRleHQtZW50aXR5LW1lbnVzLWJmNTk4NTA3LTFjNzgtNWU2Ny1hOWMyLTZlMTYxMTk5YWY2Ni1hdHRyLTMta2V5IiBjbGFzcz0iZXIgZW50aXR5TGFiZWwiPjwvdGV4dD48cmVjdCBoZWlnaHQ9IjIyIiB3aWR0aD0iMzYuMjQyMTg3NSIgeT0iOTAiIHg9IjAiIGNsYXNzPSJlciBhdHRyaWJ1dGVCb3hFdmVuIj48L3JlY3Q+PHRleHQgc3R5bGU9ImRvbWluYW50LWJhc2VsaW5lOiBtaWRkbGU7IGZvbnQtc2l6ZTogMTAuMnB4OyIgdHJhbnNmb3JtPSJ0cmFuc2xhdGUoNSwxMDEpIiB5PSIwIiB4PSIwIiBpZD0idGV4dC1lbnRpdHktbWVudXMtYmY1OTg1MDctMWM3OC01ZTY3LWE5YzItNmUxNjExOTlhZjY2LWF0dHItNC10eXBlIiBjbGFzcz0iZXIgZW50aXR5TGFiZWwiPmRhdGU8L3RleHQ+PHJlY3QgaGVpZ2h0PSIyMiIgd2lkdGg9IjQzLjE3MTg3NSIgeT0iOTAiIHg9IjM2LjI0MjE4NzUiIGNsYXNzPSJlciBhdHRyaWJ1dGVCb3hFdmVuIj48L3JlY3Q+PHRleHQgc3R5bGU9ImRvbWluYW50LWJhc2VsaW5lOiBtaWRkbGU7IGZvbnQtc2l6ZTogMTAuMnB4OyIgdHJhbnNmb3JtPSJ0cmFuc2xhdGUoNDEuMjQyMTg3NSwxMDEpIiB5PSIwIiB4PSIwIiBpZD0idGV4dC1lbnRpdHktbWVudXMtYmY1OTg1MDctMWM3OC01ZTY3LWE5YzItNmUxNjExOTlhZjY2LWF0dHItNC1uYW1lIiBjbGFzcz0iZXIgZW50aXR5TGFiZWwiPmRhdGU8L3RleHQ+PHJlY3QgaGVpZ2h0PSIyMiIgd2lkdGg9IjIxLjY4NzY5MDczNDg2MzI4IiB5PSI5MCIgeD0iNzkuNDE0MDYyNSIgY2xhc3M9ImVyIGF0dHJpYnV0ZUJveEV2ZW4iPjwvcmVjdD48dGV4dCBzdHlsZT0iZG9taW5hbnQtYmFzZWxpbmU6IG1pZGRsZTsgZm9udC1zaXplOiAxMC4ycHg7IiB0cmFuc2Zvcm09InRyYW5zbGF0ZSg4NC40MTQwNjI1LDEwMSkiIHk9IjAiIHg9IjAiIGlkPSJ0ZXh0LWVudGl0eS1tZW51cy1iZjU5ODUwNy0xYzc4LTVlNjctYTljMi02ZTE2MTE5OWFmNjYtYXR0ci00LWtleSIgY2xhc3M9ImVyIGVudGl0eUxhYmVsIj48L3RleHQ+PC9nPjxnIHRyYW5zZm9ybT0idHJhbnNsYXRlKDI0Mi4yNjE4NjE4MDExNDc0NiwyNTQgKSIgaWQ9ImVudGl0eS1kaXNoZXMtNDk0Mzk5YWMtNWVkYi01ZTY5LTgzYzAtMjA2M2IyMTg2OTY3Ij48cmVjdCBoZWlnaHQ9IjExMiIgd2lkdGg9IjEyMS4zMDQ4NzgyMzQ4NjMyOCIgeT0iMCIgeD0iMCIgY2xhc3M9ImVyIGVudGl0eUJveCI+PC9yZWN0Pjx0ZXh0IHN0eWxlPSJkb21pbmFudC1iYXNlbGluZTogbWlkZGxlOyB0ZXh0LWFuY2hvcjogbWlkZGxlOyBmb250LXNpemU6IDEycHg7IiB0cmFuc2Zvcm09InRyYW5zbGF0ZSg2MC42NTI0MzkxMTc0MzE2NCwxMikiIHk9IjAiIHg9IjAiIGlkPSJ0ZXh0LWVudGl0eS1kaXNoZXMtNDk0Mzk5YWMtNWVkYi01ZTY5LTgzYzAtMjA2M2IyMTg2OTY3IiBjbGFzcz0iZXIgZW50aXR5TGFiZWwiPmRpc2hlczwvdGV4dD48cmVjdCBoZWlnaHQ9IjIyIiB3aWR0aD0iMzYuMjQyMTg3NSIgeT0iMjQiIHg9IjAiIGNsYXNzPSJlciBhdHRyaWJ1dGVCb3hPZGQiPjwvcmVjdD48dGV4dCBzdHlsZT0iZG9taW5hbnQtYmFzZWxpbmU6IG1pZGRsZTsgZm9udC1zaXplOiAxMC4ycHg7IiB0cmFuc2Zvcm09InRyYW5zbGF0ZSg1LDM1KSIgeT0iMCIgeD0iMCIgaWQ9InRleHQtZW50aXR5LWRpc2hlcy00OTQzOTlhYy01ZWRiLTVlNjktODNjMC0yMDYzYjIxODY5NjctYXR0ci0xLXR5cGUiIGNsYXNzPSJlciBlbnRpdHlMYWJlbCI+YmlnaW50PC90ZXh0PjxyZWN0IGhlaWdodD0iMjIiIHdpZHRoPSI2My4zNzUiIHk9IjI0IiB4PSIzNi4yNDIxODc1IiBjbGFzcz0iZXIgYXR0cmlidXRlQm94T2RkIj48L3JlY3Q+PHRleHQgc3R5bGU9ImRvbWluYW50LWJhc2VsaW5lOiBtaWRkbGU7IGZvbnQtc2l6ZTogMTAuMnB4OyIgdHJhbnNmb3JtPSJ0cmFuc2xhdGUoNDEuMjQyMTg3NSwzNSkiIHk9IjAiIHg9IjAiIGlkPSJ0ZXh0LWVudGl0eS1kaXNoZXMtNDk0Mzk5YWMtNWVkYi01ZTY5LTgzYzAtMjA2M2IyMTg2OTY3LWF0dHItMS1uYW1lIiBjbGFzcz0iZXIgZW50aXR5TGFiZWwiPmlkPC90ZXh0PjxyZWN0IGhlaWdodD0iMjIiIHdpZHRoPSIyMS42ODc2OTA3MzQ4NjMyOCIgeT0iMjQiIHg9Ijk5LjYxNzE4NzUiIGNsYXNzPSJlciBhdHRyaWJ1dGVCb3hPZGQiPjwvcmVjdD48dGV4dCBzdHlsZT0iZG9taW5hbnQtYmFzZWxpbmU6IG1pZGRsZTsgZm9udC1zaXplOiAxMC4ycHg7IiB0cmFuc2Zvcm09InRyYW5zbGF0ZSgxMDQuNjE3MTg3NSwzNSkiIHk9IjAiIHg9IjAiIGlkPSJ0ZXh0LWVudGl0eS1kaXNoZXMtNDk0Mzk5YWMtNWVkYi01ZTY5LTgzYzAtMjA2M2IyMTg2OTY3LWF0dHItMS1rZXkiIGNsYXNzPSJlciBlbnRpdHlMYWJlbCI+UEs8L3RleHQ+PHJlY3QgaGVpZ2h0PSIyMiIgd2lkdGg9IjM2LjI0MjE4NzUiIHk9IjQ2IiB4PSIwIiBjbGFzcz0iZXIgYXR0cmlidXRlQm94RXZlbiI+PC9yZWN0Pjx0ZXh0IHN0eWxlPSJkb21pbmFudC1iYXNlbGluZTogbWlkZGxlOyBmb250LXNpemU6IDEwLjJweDsiIHRyYW5zZm9ybT0idHJhbnNsYXRlKDUsNTcpIiB5PSIwIiB4PSIwIiBpZD0idGV4dC1lbnRpdHktZGlzaGVzLTQ5NDM5OWFjLTVlZGItNWU2OS04M2MwLTIwNjNiMjE4Njk2Ny1hdHRyLTItdHlwZSIgY2xhc3M9ImVyIGVudGl0eUxhYmVsIj5iaWdpbnQ8L3RleHQ+PHJlY3QgaGVpZ2h0PSIyMiIgd2lkdGg9IjYzLjM3NSIgeT0iNDYiIHg9IjM2LjI0MjE4NzUiIGNsYXNzPSJlciBhdHRyaWJ1dGVCb3hFdmVuIj48L3JlY3Q+PHRleHQgc3R5bGU9ImRvbWluYW50LWJhc2VsaW5lOiBtaWRkbGU7IGZvbnQtc2l6ZTogMTAuMnB4OyIgdHJhbnNmb3JtPSJ0cmFuc2xhdGUoNDEuMjQyMTg3NSw1NykiIHk9IjAiIHg9IjAiIGlkPSJ0ZXh0LWVudGl0eS1kaXNoZXMtNDk0Mzk5YWMtNWVkYi01ZTY5LTgzYzAtMjA2M2IyMTg2OTY3LWF0dHItMi1uYW1lIiBjbGFzcz0iZXIgZW50aXR5TGFiZWwiPnVzZXJfaWQ8L3RleHQ+PHJlY3QgaGVpZ2h0PSIyMiIgd2lkdGg9IjIxLjY4NzY5MDczNDg2MzI4IiB5PSI0NiIgeD0iOTkuNjE3MTg3NSIgY2xhc3M9ImVyIGF0dHJpYnV0ZUJveEV2ZW4iPjwvcmVjdD48dGV4dCBzdHlsZT0iZG9taW5hbnQtYmFzZWxpbmU6IG1pZGRsZTsgZm9udC1zaXplOiAxMC4ycHg7IiB0cmFuc2Zvcm09InRyYW5zbGF0ZSgxMDQuNjE3MTg3NSw1NykiIHk9IjAiIHg9IjAiIGlkPSJ0ZXh0LWVudGl0eS1kaXNoZXMtNDk0Mzk5YWMtNWVkYi01ZTY5LTgzYzAtMjA2M2IyMTg2OTY3LWF0dHItMi1rZXkiIGNsYXNzPSJlciBlbnRpdHlMYWJlbCI+Rks8L3RleHQ+PHJlY3QgaGVpZ2h0PSIyMiIgd2lkdGg9IjM2LjI0MjE4NzUiIHk9IjY4IiB4PSIwIiBjbGFzcz0iZXIgYXR0cmlidXRlQm94T2RkIj48L3JlY3Q+PHRleHQgc3R5bGU9ImRvbWluYW50LWJhc2VsaW5lOiBtaWRkbGU7IGZvbnQtc2l6ZTogMTAuMnB4OyIgdHJhbnNmb3JtPSJ0cmFuc2xhdGUoNSw3OSkiIHk9IjAiIHg9IjAiIGlkPSJ0ZXh0LWVudGl0eS1kaXNoZXMtNDk0Mzk5YWMtNWVkYi01ZTY5LTgzYzAtMjA2M2IyMTg2OTY3LWF0dHItMy10eXBlIiBjbGFzcz0iZXIgZW50aXR5TGFiZWwiPnN0cmluZzwvdGV4dD48cmVjdCBoZWlnaHQ9IjIyIiB3aWR0aD0iNjMuMzc1IiB5PSI2OCIgeD0iMzYuMjQyMTg3NSIgY2xhc3M9ImVyIGF0dHJpYnV0ZUJveE9kZCI+PC9yZWN0Pjx0ZXh0IHN0eWxlPSJkb21pbmFudC1iYXNlbGluZTogbWlkZGxlOyBmb250LXNpemU6IDEwLjJweDsiIHRyYW5zZm9ybT0idHJhbnNsYXRlKDQxLjI0MjE4NzUsNzkpIiB5PSIwIiB4PSIwIiBpZD0idGV4dC1lbnRpdHktZGlzaGVzLTQ5NDM5OWFjLTVlZGItNWU2OS04M2MwLTIwNjNiMjE4Njk2Ny1hdHRyLTMtbmFtZSIgY2xhc3M9ImVyIGVudGl0eUxhYmVsIj5uYW1lPC90ZXh0PjxyZWN0IGhlaWdodD0iMjIiIHdpZHRoPSIyMS42ODc2OTA3MzQ4NjMyOCIgeT0iNjgiIHg9Ijk5LjYxNzE4NzUiIGNsYXNzPSJlciBhdHRyaWJ1dGVCb3hPZGQiPjwvcmVjdD48dGV4dCBzdHlsZT0iZG9taW5hbnQtYmFzZWxpbmU6IG1pZGRsZTsgZm9udC1zaXplOiAxMC4ycHg7IiB0cmFuc2Zvcm09InRyYW5zbGF0ZSgxMDQuNjE3MTg3NSw3OSkiIHk9IjAiIHg9IjAiIGlkPSJ0ZXh0LWVudGl0eS1kaXNoZXMtNDk0Mzk5YWMtNWVkYi01ZTY5LTgzYzAtMjA2M2IyMTg2OTY3LWF0dHItMy1rZXkiIGNsYXNzPSJlciBlbnRpdHlMYWJlbCI+PC90ZXh0PjxyZWN0IGhlaWdodD0iMjIiIHdpZHRoPSIzNi4yNDIxODc1IiB5PSI5MCIgeD0iMCIgY2xhc3M9ImVyIGF0dHJpYnV0ZUJveEV2ZW4iPjwvcmVjdD48dGV4dCBzdHlsZT0iZG9taW5hbnQtYmFzZWxpbmU6IG1pZGRsZTsgZm9udC1zaXplOiAxMC4ycHg7IiB0cmFuc2Zvcm09InRyYW5zbGF0ZSg1LDEwMSkiIHk9IjAiIHg9IjAiIGlkPSJ0ZXh0LWVudGl0eS1kaXNoZXMtNDk0Mzk5YWMtNWVkYi01ZTY5LTgzYzAtMjA2M2IyMTg2OTY3LWF0dHItNC10eXBlIiBjbGFzcz0iZXIgZW50aXR5TGFiZWwiPnRleHQ8L3RleHQ+PHJlY3QgaGVpZ2h0PSIyMiIgd2lkdGg9IjYzLjM3NSIgeT0iOTAiIHg9IjM2LjI0MjE4NzUiIGNsYXNzPSJlciBhdHRyaWJ1dGVCb3hFdmVuIj48L3JlY3Q+PHRleHQgc3R5bGU9ImRvbWluYW50LWJhc2VsaW5lOiBtaWRkbGU7IGZvbnQtc2l6ZTogMTAuMnB4OyIgdHJhbnNmb3JtPSJ0cmFuc2xhdGUoNDEuMjQyMTg3NSwxMDEpIiB5PSIwIiB4PSIwIiBpZD0idGV4dC1lbnRpdHktZGlzaGVzLTQ5NDM5OWFjLTVlZGItNWU2OS04M2MwLTIwNjNiMjE4Njk2Ny1hdHRyLTQtbmFtZSIgY2xhc3M9ImVyIGVudGl0eUxhYmVsIj5pbnN0cnVjdGlvbnM8L3RleHQ+PHJlY3QgaGVpZ2h0PSIyMiIgd2lkdGg9IjIxLjY4NzY5MDczNDg2MzI4IiB5PSI5MCIgeD0iOTkuNjE3MTg3NSIgY2xhc3M9ImVyIGF0dHJpYnV0ZUJveEV2ZW4iPjwvcmVjdD48dGV4dCBzdHlsZT0iZG9taW5hbnQtYmFzZWxpbmU6IG1pZGRsZTsgZm9udC1zaXplOiAxMC4ycHg7IiB0cmFuc2Zvcm09InRyYW5zbGF0ZSgxMDQuNjE3MTg3NSwxMDEpIiB5PSIwIiB4PSIwIiBpZD0idGV4dC1lbnRpdHktZGlzaGVzLTQ5NDM5OWFjLTVlZGItNWU2OS04M2MwLTIwNjNiMjE4Njk2Ny1hdHRyLTQta2V5IiBjbGFzcz0iZXIgZW50aXR5TGFiZWwiPjwvdGV4dD48L2c+PGcgdHJhbnNmb3JtPSJ0cmFuc2xhdGUoNDcyLjY2MzQxNTkwODgxMzUsMjMyICkiIGlkPSJlbnRpdHktc3RvY2tzLTFhNTNhNWRhLTg1YTYtNTIyMS05NmY4LTNlODlkYmUyYmNhOCI+PHJlY3QgaGVpZ2h0PSIxNTYiIHdpZHRoPSIxNTAuMzEyNjkwNzM0ODYzMjgiIHk9IjAiIHg9IjAiIGNsYXNzPSJlciBlbnRpdHlCb3giPjwvcmVjdD48dGV4dCBzdHlsZT0iZG9taW5hbnQtYmFzZWxpbmU6IG1pZGRsZTsgdGV4dC1hbmNob3I6IG1pZGRsZTsgZm9udC1zaXplOiAxMnB4OyIgdHJhbnNmb3JtPSJ0cmFuc2xhdGUoNzUuMTU2MzQ1MzY3NDMxNjQsMTIpIiB5PSIwIiB4PSIwIiBpZD0idGV4dC1lbnRpdHktc3RvY2tzLTFhNTNhNWRhLTg1YTYtNTIyMS05NmY4LTNlODlkYmUyYmNhOCIgY2xhc3M9ImVyIGVudGl0eUxhYmVsIj5zdG9ja3M8L3RleHQ+PHJlY3QgaGVpZ2h0PSIyMiIgd2lkdGg9IjQ2LjAzOTA2MjUiIHk9IjI0IiB4PSIwIiBjbGFzcz0iZXIgYXR0cmlidXRlQm94T2RkIj48L3JlY3Q+PHRleHQgc3R5bGU9ImRvbWluYW50LWJhc2VsaW5lOiBtaWRkbGU7IGZvbnQtc2l6ZTogMTAuMnB4OyIgdHJhbnNmb3JtPSJ0cmFuc2xhdGUoNSwzNSkiIHk9IjAiIHg9IjAiIGlkPSJ0ZXh0LWVudGl0eS1zdG9ja3MtMWE1M2E1ZGEtODVhNi01MjIxLTk2ZjgtM2U4OWRiZTJiY2E4LWF0dHItMS10eXBlIiBjbGFzcz0iZXIgZW50aXR5TGFiZWwiPmJpZ2ludDwvdGV4dD48cmVjdCBoZWlnaHQ9IjIyIiB3aWR0aD0iODIuNTg1OTM3NSIgeT0iMjQiIHg9IjQ2LjAzOTA2MjUiIGNsYXNzPSJlciBhdHRyaWJ1dGVCb3hPZGQiPjwvcmVjdD48dGV4dCBzdHlsZT0iZG9taW5hbnQtYmFzZWxpbmU6IG1pZGRsZTsgZm9udC1zaXplOiAxMC4ycHg7IiB0cmFuc2Zvcm09InRyYW5zbGF0ZSg1MS4wMzkwNjI1LDM1KSIgeT0iMCIgeD0iMCIgaWQ9InRleHQtZW50aXR5LXN0b2Nrcy0xYTUzYTVkYS04NWE2LTUyMjEtOTZmOC0zZTg5ZGJlMmJjYTgtYXR0ci0xLW5hbWUiIGNsYXNzPSJlciBlbnRpdHlMYWJlbCI+aWQ8L3RleHQ+PHJlY3QgaGVpZ2h0PSIyMiIgd2lkdGg9IjIxLjY4NzY5MDczNDg2MzI4IiB5PSIyNCIgeD0iMTI4LjYyNSIgY2xhc3M9ImVyIGF0dHJpYnV0ZUJveE9kZCI+PC9yZWN0Pjx0ZXh0IHN0eWxlPSJkb21pbmFudC1iYXNlbGluZTogbWlkZGxlOyBmb250LXNpemU6IDEwLjJweDsiIHRyYW5zZm9ybT0idHJhbnNsYXRlKDEzMy42MjUsMzUpIiB5PSIwIiB4PSIwIiBpZD0idGV4dC1lbnRpdHktc3RvY2tzLTFhNTNhNWRhLTg1YTYtNTIyMS05NmY4LTNlODlkYmUyYmNhOC1hdHRyLTEta2V5IiBjbGFzcz0iZXIgZW50aXR5TGFiZWwiPlBLPC90ZXh0PjxyZWN0IGhlaWdodD0iMjIiIHdpZHRoPSI0Ni4wMzkwNjI1IiB5PSI0NiIgeD0iMCIgY2xhc3M9ImVyIGF0dHJpYnV0ZUJveEV2ZW4iPjwvcmVjdD48dGV4dCBzdHlsZT0iZG9taW5hbnQtYmFzZWxpbmU6IG1pZGRsZTsgZm9udC1zaXplOiAxMC4ycHg7IiB0cmFuc2Zvcm09InRyYW5zbGF0ZSg1LDU3KSIgeT0iMCIgeD0iMCIgaWQ9InRleHQtZW50aXR5LXN0b2Nrcy0xYTUzYTVkYS04NWE2LTUyMjEtOTZmOC0zZTg5ZGJlMmJjYTgtYXR0ci0yLXR5cGUiIGNsYXNzPSJlciBlbnRpdHlMYWJlbCI+YmlnaW50PC90ZXh0PjxyZWN0IGhlaWdodD0iMjIiIHdpZHRoPSI4Mi41ODU5Mzc1IiB5PSI0NiIgeD0iNDYuMDM5MDYyNSIgY2xhc3M9ImVyIGF0dHJpYnV0ZUJveEV2ZW4iPjwvcmVjdD48dGV4dCBzdHlsZT0iZG9taW5hbnQtYmFzZWxpbmU6IG1pZGRsZTsgZm9udC1zaXplOiAxMC4ycHg7IiB0cmFuc2Zvcm09InRyYW5zbGF0ZSg1MS4wMzkwNjI1LDU3KSIgeT0iMCIgeD0iMCIgaWQ9InRleHQtZW50aXR5LXN0b2Nrcy0xYTUzYTVkYS04NWE2LTUyMjEtOTZmOC0zZTg5ZGJlMmJjYTgtYXR0ci0yLW5hbWUiIGNsYXNzPSJlciBlbnRpdHlMYWJlbCI+dXNlcl9pZDwvdGV4dD48cmVjdCBoZWlnaHQ9IjIyIiB3aWR0aD0iMjEuNjg3NjkwNzM0ODYzMjgiIHk9IjQ2IiB4PSIxMjguNjI1IiBjbGFzcz0iZXIgYXR0cmlidXRlQm94RXZlbiI+PC9yZWN0Pjx0ZXh0IHN0eWxlPSJkb21pbmFudC1iYXNlbGluZTogbWlkZGxlOyBmb250LXNpemU6IDEwLjJweDsiIHRyYW5zZm9ybT0idHJhbnNsYXRlKDEzMy42MjUsNTcpIiB5PSIwIiB4PSIwIiBpZD0idGV4dC1lbnRpdHktc3RvY2tzLTFhNTNhNWRhLTg1YTYtNTIyMS05NmY4LTNlODlkYmUyYmNhOC1hdHRyLTIta2V5IiBjbGFzcz0iZXIgZW50aXR5TGFiZWwiPkZLPC90ZXh0PjxyZWN0IGhlaWdodD0iMjIiIHdpZHRoPSI0Ni4wMzkwNjI1IiB5PSI2OCIgeD0iMCIgY2xhc3M9ImVyIGF0dHJpYnV0ZUJveE9kZCI+PC9yZWN0Pjx0ZXh0IHN0eWxlPSJkb21pbmFudC1iYXNlbGluZTogbWlkZGxlOyBmb250LXNpemU6IDEwLjJweDsiIHRyYW5zZm9ybT0idHJhbnNsYXRlKDUsNzkpIiB5PSIwIiB4PSIwIiBpZD0idGV4dC1lbnRpdHktc3RvY2tzLTFhNTNhNWRhLTg1YTYtNTIyMS05NmY4LTNlODlkYmUyYmNhOC1hdHRyLTMtdHlwZSIgY2xhc3M9ImVyIGVudGl0eUxhYmVsIj5iaWdpbnQ8L3RleHQ+PHJlY3QgaGVpZ2h0PSIyMiIgd2lkdGg9IjgyLjU4NTkzNzUiIHk9IjY4IiB4PSI0Ni4wMzkwNjI1IiBjbGFzcz0iZXIgYXR0cmlidXRlQm94T2RkIj48L3JlY3Q+PHRleHQgc3R5bGU9ImRvbWluYW50LWJhc2VsaW5lOiBtaWRkbGU7IGZvbnQtc2l6ZTogMTAuMnB4OyIgdHJhbnNmb3JtPSJ0cmFuc2xhdGUoNTEuMDM5MDYyNSw3OSkiIHk9IjAiIHg9IjAiIGlkPSJ0ZXh0LWVudGl0eS1zdG9ja3MtMWE1M2E1ZGEtODVhNi01MjIxLTk2ZjgtM2U4OWRiZTJiY2E4LWF0dHItMy1uYW1lIiBjbGFzcz0iZXIgZW50aXR5TGFiZWwiPml0ZW1faWQ8L3RleHQ+PHJlY3QgaGVpZ2h0PSIyMiIgd2lkdGg9IjIxLjY4NzY5MDczNDg2MzI4IiB5PSI2OCIgeD0iMTI4LjYyNSIgY2xhc3M9ImVyIGF0dHJpYnV0ZUJveE9kZCI+PC9yZWN0Pjx0ZXh0IHN0eWxlPSJkb21pbmFudC1iYXNlbGluZTogbWlkZGxlOyBmb250LXNpemU6IDEwLjJweDsiIHRyYW5zZm9ybT0idHJhbnNsYXRlKDEzMy42MjUsNzkpIiB5PSIwIiB4PSIwIiBpZD0idGV4dC1lbnRpdHktc3RvY2tzLTFhNTNhNWRhLTg1YTYtNTIyMS05NmY4LTNlODlkYmUyYmNhOC1hdHRyLTMta2V5IiBjbGFzcz0iZXIgZW50aXR5TGFiZWwiPkZLPC90ZXh0PjxyZWN0IGhlaWdodD0iMjIiIHdpZHRoPSI0Ni4wMzkwNjI1IiB5PSI5MCIgeD0iMCIgY2xhc3M9ImVyIGF0dHJpYnV0ZUJveEV2ZW4iPjwvcmVjdD48dGV4dCBzdHlsZT0iZG9taW5hbnQtYmFzZWxpbmU6IG1pZGRsZTsgZm9udC1zaXplOiAxMC4ycHg7IiB0cmFuc2Zvcm09InRyYW5zbGF0ZSg1LDEwMSkiIHk9IjAiIHg9IjAiIGlkPSJ0ZXh0LWVudGl0eS1zdG9ja3MtMWE1M2E1ZGEtODVhNi01MjIxLTk2ZjgtM2U4OWRiZTJiY2E4LWF0dHItNC10eXBlIiBjbGFzcz0iZXIgZW50aXR5TGFiZWwiPmRlY2ltYWw8L3RleHQ+PHJlY3QgaGVpZ2h0PSIyMiIgd2lkdGg9IjgyLjU4NTkzNzUiIHk9IjkwIiB4PSI0Ni4wMzkwNjI1IiBjbGFzcz0iZXIgYXR0cmlidXRlQm94RXZlbiI+PC9yZWN0Pjx0ZXh0IHN0eWxlPSJkb21pbmFudC1iYXNlbGluZTogbWlkZGxlOyBmb250LXNpemU6IDEwLjJweDsiIHRyYW5zZm9ybT0idHJhbnNsYXRlKDUxLjAzOTA2MjUsMTAxKSIgeT0iMCIgeD0iMCIgaWQ9InRleHQtZW50aXR5LXN0b2Nrcy0xYTUzYTVkYS04NWE2LTUyMjEtOTZmOC0zZTg5ZGJlMmJjYTgtYXR0ci00LW5hbWUiIGNsYXNzPSJlciBlbnRpdHlMYWJlbCI+cXVhbnRpdHk8L3RleHQ+PHJlY3QgaGVpZ2h0PSIyMiIgd2lkdGg9IjIxLjY4NzY5MDczNDg2MzI4IiB5PSI5MCIgeD0iMTI4LjYyNSIgY2xhc3M9ImVyIGF0dHJpYnV0ZUJveEV2ZW4iPjwvcmVjdD48dGV4dCBzdHlsZT0iZG9taW5hbnQtYmFzZWxpbmU6IG1pZGRsZTsgZm9udC1zaXplOiAxMC4ycHg7IiB0cmFuc2Zvcm09InRyYW5zbGF0ZSgxMzMuNjI1LDEwMSkiIHk9IjAiIHg9IjAiIGlkPSJ0ZXh0LWVudGl0eS1zdG9ja3MtMWE1M2E1ZGEtODVhNi01MjIxLTk2ZjgtM2U4OWRiZTJiY2E4LWF0dHItNC1rZXkiIGNsYXNzPSJlciBlbnRpdHlMYWJlbCI+PC90ZXh0PjxyZWN0IGhlaWdodD0iMjIiIHdpZHRoPSI0Ni4wMzkwNjI1IiB5PSIxMTIiIHg9IjAiIGNsYXNzPSJlciBhdHRyaWJ1dGVCb3hPZGQiPjwvcmVjdD48dGV4dCBzdHlsZT0iZG9taW5hbnQtYmFzZWxpbmU6IG1pZGRsZTsgZm9udC1zaXplOiAxMC4ycHg7IiB0cmFuc2Zvcm09InRyYW5zbGF0ZSg1LDEyMykiIHk9IjAiIHg9IjAiIGlkPSJ0ZXh0LWVudGl0eS1zdG9ja3MtMWE1M2E1ZGEtODVhNi01MjIxLTk2ZjgtM2U4OWRiZTJiY2E4LWF0dHItNS10eXBlIiBjbGFzcz0iZXIgZW50aXR5TGFiZWwiPnN0cmluZzwvdGV4dD48cmVjdCBoZWlnaHQ9IjIyIiB3aWR0aD0iODIuNTg1OTM3NSIgeT0iMTEyIiB4PSI0Ni4wMzkwNjI1IiBjbGFzcz0iZXIgYXR0cmlidXRlQm94T2RkIj48L3JlY3Q+PHRleHQgc3R5bGU9ImRvbWluYW50LWJhc2VsaW5lOiBtaWRkbGU7IGZvbnQtc2l6ZTogMTAuMnB4OyIgdHJhbnNmb3JtPSJ0cmFuc2xhdGUoNTEuMDM5MDYyNSwxMjMpIiB5PSIwIiB4PSIwIiBpZD0idGV4dC1lbnRpdHktc3RvY2tzLTFhNTNhNWRhLTg1YTYtNTIyMS05NmY4LTNlODlkYmUyYmNhOC1hdHRyLTUtbmFtZSIgY2xhc3M9ImVyIGVudGl0eUxhYmVsIj51bml0PC90ZXh0PjxyZWN0IGhlaWdodD0iMjIiIHdpZHRoPSIyMS42ODc2OTA3MzQ4NjMyOCIgeT0iMTEyIiB4PSIxMjguNjI1IiBjbGFzcz0iZXIgYXR0cmlidXRlQm94T2RkIj48L3JlY3Q+PHRleHQgc3R5bGU9ImRvbWluYW50LWJhc2VsaW5lOiBtaWRkbGU7IGZvbnQtc2l6ZTogMTAuMnB4OyIgdHJhbnNmb3JtPSJ0cmFuc2xhdGUoMTMzLjYyNSwxMjMpIiB5PSIwIiB4PSIwIiBpZD0idGV4dC1lbnRpdHktc3RvY2tzLTFhNTNhNWRhLTg1YTYtNTIyMS05NmY4LTNlODlkYmUyYmNhOC1hdHRyLTUta2V5IiBjbGFzcz0iZXIgZW50aXR5TGFiZWwiPjwvdGV4dD48cmVjdCBoZWlnaHQ9IjIyIiB3aWR0aD0iNDYuMDM5MDYyNSIgeT0iMTM0IiB4PSIwIiBjbGFzcz0iZXIgYXR0cmlidXRlQm94RXZlbiI+PC9yZWN0Pjx0ZXh0IHN0eWxlPSJkb21pbmFudC1iYXNlbGluZTogbWlkZGxlOyBmb250LXNpemU6IDEwLjJweDsiIHRyYW5zZm9ybT0idHJhbnNsYXRlKDUsMTQ1KSIgeT0iMCIgeD0iMCIgaWQ9InRleHQtZW50aXR5LXN0b2Nrcy0xYTUzYTVkYS04NWE2LTUyMjEtOTZmOC0zZTg5ZGJlMmJjYTgtYXR0ci02LXR5cGUiIGNsYXNzPSJlciBlbnRpdHlMYWJlbCI+ZGF0ZTwvdGV4dD48cmVjdCBoZWlnaHQ9IjIyIiB3aWR0aD0iODIuNTg1OTM3NSIgeT0iMTM0IiB4PSI0Ni4wMzkwNjI1IiBjbGFzcz0iZXIgYXR0cmlidXRlQm94RXZlbiI+PC9yZWN0Pjx0ZXh0IHN0eWxlPSJkb21pbmFudC1iYXNlbGluZTogbWlkZGxlOyBmb250LXNpemU6IDEwLjJweDsiIHRyYW5zZm9ybT0idHJhbnNsYXRlKDUxLjAzOTA2MjUsMTQ1KSIgeT0iMCIgeD0iMCIgaWQ9InRleHQtZW50aXR5LXN0b2Nrcy0xYTUzYTVkYS04NWE2LTUyMjEtOTZmOC0zZTg5ZGJlMmJjYTgtYXR0ci02LW5hbWUiIGNsYXNzPSJlciBlbnRpdHlMYWJlbCI+ZXhwaXJhdGlvbl9kYXRlPC90ZXh0PjxyZWN0IGhlaWdodD0iMjIiIHdpZHRoPSIyMS42ODc2OTA3MzQ4NjMyOCIgeT0iMTM0IiB4PSIxMjguNjI1IiBjbGFzcz0iZXIgYXR0cmlidXRlQm94RXZlbiI+PC9yZWN0Pjx0ZXh0IHN0eWxlPSJkb21pbmFudC1iYXNlbGluZTogbWlkZGxlOyBmb250LXNpemU6IDEwLjJweDsiIHRyYW5zZm9ybT0idHJhbnNsYXRlKDEzMy42MjUsMTQ1KSIgeT0iMCIgeD0iMCIgaWQ9InRleHQtZW50aXR5LXN0b2Nrcy0xYTUzYTVkYS04NWE2LTUyMjEtOTZmOC0zZTg5ZGJlMmJjYTgtYXR0ci02LWtleSIgY2xhc3M9ImVyIGVudGl0eUxhYmVsIj48L3RleHQ+PC9nPjxnIHRyYW5zZm9ybT0idHJhbnNsYXRlKDcwMS44MjE4ODk4NzczMTkzLDQ4OCApIiBpZD0iZW50aXR5LXNob3BwaW5nbGlzdHMtNmI4NmY2ZGEtYjk1OC01MWVmLTk4NmItNTdlOWFmMTk5MGZlIj48cmVjdCBoZWlnaHQ9IjExMiIgd2lkdGg9IjEzMy4zMDQ4NzgyMzQ4NjMyOCIgeT0iMCIgeD0iMCIgY2xhc3M9ImVyIGVudGl0eUJveCI+PC9yZWN0Pjx0ZXh0IHN0eWxlPSJkb21pbmFudC1iYXNlbGluZTogbWlkZGxlOyB0ZXh0LWFuY2hvcjogbWlkZGxlOyBmb250LXNpemU6IDEycHg7IiB0cmFuc2Zvcm09InRyYW5zbGF0ZSg2Ni42NTI0MzkxMTc0MzE2NCwxMikiIHk9IjAiIHg9IjAiIGlkPSJ0ZXh0LWVudGl0eS1zaG9wcGluZ2xpc3RzLTZiODZmNmRhLWI5NTgtNTFlZi05ODZiLTU3ZTlhZjE5OTBmZSIgY2xhc3M9ImVyIGVudGl0eUxhYmVsIj5zaG9wcGluZ19saXN0czwvdGV4dD48cmVjdCBoZWlnaHQ9IjIyIiB3aWR0aD0iNTEuNjMyODEyNSIgeT0iMjQiIHg9IjAiIGNsYXNzPSJlciBhdHRyaWJ1dGVCb3hPZGQiPjwvcmVjdD48dGV4dCBzdHlsZT0iZG9taW5hbnQtYmFzZWxpbmU6IG1pZGRsZTsgZm9udC1zaXplOiAxMC4ycHg7IiB0cmFuc2Zvcm09InRyYW5zbGF0ZSg1LDM1KSIgeT0iMCIgeD0iMCIgaWQ9InRleHQtZW50aXR5LXNob3BwaW5nbGlzdHMtNmI4NmY2ZGEtYjk1OC01MWVmLTk4NmItNTdlOWFmMTk5MGZlLWF0dHItMS10eXBlIiBjbGFzcz0iZXIgZW50aXR5TGFiZWwiPmJpZ2ludDwvdGV4dD48cmVjdCBoZWlnaHQ9IjIyIiB3aWR0aD0iNTkuOTg0Mzc1IiB5PSIyNCIgeD0iNTEuNjMyODEyNSIgY2xhc3M9ImVyIGF0dHJpYnV0ZUJveE9kZCI+PC9yZWN0Pjx0ZXh0IHN0eWxlPSJkb21pbmFudC1iYXNlbGluZTogbWlkZGxlOyBmb250LXNpemU6IDEwLjJweDsiIHRyYW5zZm9ybT0idHJhbnNsYXRlKDU2LjYzMjgxMjUsMzUpIiB5PSIwIiB4PSIwIiBpZD0idGV4dC1lbnRpdHktc2hvcHBpbmdsaXN0cy02Yjg2ZjZkYS1iOTU4LTUxZWYtOTg2Yi01N2U5YWYxOTkwZmUtYXR0ci0xLW5hbWUiIGNsYXNzPSJlciBlbnRpdHlMYWJlbCI+aWQ8L3RleHQ+PHJlY3QgaGVpZ2h0PSIyMiIgd2lkdGg9IjIxLjY4NzY5MDczNDg2MzI4IiB5PSIyNCIgeD0iMTExLjYxNzE4NzUiIGNsYXNzPSJlciBhdHRyaWJ1dGVCb3hPZGQiPjwvcmVjdD48dGV4dCBzdHlsZT0iZG9taW5hbnQtYmFzZWxpbmU6IG1pZGRsZTsgZm9udC1zaXplOiAxMC4ycHg7IiB0cmFuc2Zvcm09InRyYW5zbGF0ZSgxMTYuNjE3MTg3NSwzNSkiIHk9IjAiIHg9IjAiIGlkPSJ0ZXh0LWVudGl0eS1zaG9wcGluZ2xpc3RzLTZiODZmNmRhLWI5NTgtNTFlZi05ODZiLTU3ZTlhZjE5OTBmZS1hdHRyLTEta2V5IiBjbGFzcz0iZXIgZW50aXR5TGFiZWwiPlBLPC90ZXh0PjxyZWN0IGhlaWdodD0iMjIiIHdpZHRoPSI1MS42MzI4MTI1IiB5PSI0NiIgeD0iMCIgY2xhc3M9ImVyIGF0dHJpYnV0ZUJveEV2ZW4iPjwvcmVjdD48dGV4dCBzdHlsZT0iZG9taW5hbnQtYmFzZWxpbmU6IG1pZGRsZTsgZm9udC1zaXplOiAxMC4ycHg7IiB0cmFuc2Zvcm09InRyYW5zbGF0ZSg1LDU3KSIgeT0iMCIgeD0iMCIgaWQ9InRleHQtZW50aXR5LXNob3BwaW5nbGlzdHMtNmI4NmY2ZGEtYjk1OC01MWVmLTk4NmItNTdlOWFmMTk5MGZlLWF0dHItMi10eXBlIiBjbGFzcz0iZXIgZW50aXR5TGFiZWwiPmJpZ2ludDwvdGV4dD48cmVjdCBoZWlnaHQ9IjIyIiB3aWR0aD0iNTkuOTg0Mzc1IiB5PSI0NiIgeD0iNTEuNjMyODEyNSIgY2xhc3M9ImVyIGF0dHJpYnV0ZUJveEV2ZW4iPjwvcmVjdD48dGV4dCBzdHlsZT0iZG9taW5hbnQtYmFzZWxpbmU6IG1pZGRsZTsgZm9udC1zaXplOiAxMC4ycHg7IiB0cmFuc2Zvcm09InRyYW5zbGF0ZSg1Ni42MzI4MTI1LDU3KSIgeT0iMCIgeD0iMCIgaWQ9InRleHQtZW50aXR5LXNob3BwaW5nbGlzdHMtNmI4NmY2ZGEtYjk1OC01MWVmLTk4NmItNTdlOWFmMTk5MGZlLWF0dHItMi1uYW1lIiBjbGFzcz0iZXIgZW50aXR5TGFiZWwiPnVzZXJfaWQ8L3RleHQ+PHJlY3QgaGVpZ2h0PSIyMiIgd2lkdGg9IjIxLjY4NzY5MDczNDg2MzI4IiB5PSI0NiIgeD0iMTExLjYxNzE4NzUiIGNsYXNzPSJlciBhdHRyaWJ1dGVCb3hFdmVuIj48L3JlY3Q+PHRleHQgc3R5bGU9ImRvbWluYW50LWJhc2VsaW5lOiBtaWRkbGU7IGZvbnQtc2l6ZTogMTAuMnB4OyIgdHJhbnNmb3JtPSJ0cmFuc2xhdGUoMTE2LjYxNzE4NzUsNTcpIiB5PSIwIiB4PSIwIiBpZD0idGV4dC1lbnRpdHktc2hvcHBpbmdsaXN0cy02Yjg2ZjZkYS1iOTU4LTUxZWYtOTg2Yi01N2U5YWYxOTkwZmUtYXR0ci0yLWtleSIgY2xhc3M9ImVyIGVudGl0eUxhYmVsIj5GSzwvdGV4dD48cmVjdCBoZWlnaHQ9IjIyIiB3aWR0aD0iNTEuNjMyODEyNSIgeT0iNjgiIHg9IjAiIGNsYXNzPSJlciBhdHRyaWJ1dGVCb3hPZGQiPjwvcmVjdD48dGV4dCBzdHlsZT0iZG9taW5hbnQtYmFzZWxpbmU6IG1pZGRsZTsgZm9udC1zaXplOiAxMC4ycHg7IiB0cmFuc2Zvcm09InRyYW5zbGF0ZSg1LDc5KSIgeT0iMCIgeD0iMCIgaWQ9InRleHQtZW50aXR5LXNob3BwaW5nbGlzdHMtNmI4NmY2ZGEtYjk1OC01MWVmLTk4NmItNTdlOWFmMTk5MGZlLWF0dHItMy10eXBlIiBjbGFzcz0iZXIgZW50aXR5TGFiZWwiPnN0cmluZzwvdGV4dD48cmVjdCBoZWlnaHQ9IjIyIiB3aWR0aD0iNTkuOTg0Mzc1IiB5PSI2OCIgeD0iNTEuNjMyODEyNSIgY2xhc3M9ImVyIGF0dHJpYnV0ZUJveE9kZCI+PC9yZWN0Pjx0ZXh0IHN0eWxlPSJkb21pbmFudC1iYXNlbGluZTogbWlkZGxlOyBmb250LXNpemU6IDEwLjJweDsiIHRyYW5zZm9ybT0idHJhbnNsYXRlKDU2LjYzMjgxMjUsNzkpIiB5PSIwIiB4PSIwIiBpZD0idGV4dC1lbnRpdHktc2hvcHBpbmdsaXN0cy02Yjg2ZjZkYS1iOTU4LTUxZWYtOTg2Yi01N2U5YWYxOTkwZmUtYXR0ci0zLW5hbWUiIGNsYXNzPSJlciBlbnRpdHlMYWJlbCI+bmFtZTwvdGV4dD48cmVjdCBoZWlnaHQ9IjIyIiB3aWR0aD0iMjEuNjg3NjkwNzM0ODYzMjgiIHk9IjY4IiB4PSIxMTEuNjE3MTg3NSIgY2xhc3M9ImVyIGF0dHJpYnV0ZUJveE9kZCI+PC9yZWN0Pjx0ZXh0IHN0eWxlPSJkb21pbmFudC1iYXNlbGluZTogbWlkZGxlOyBmb250LXNpemU6IDEwLjJweDsiIHRyYW5zZm9ybT0idHJhbnNsYXRlKDExNi42MTcxODc1LDc5KSIgeT0iMCIgeD0iMCIgaWQ9InRleHQtZW50aXR5LXNob3BwaW5nbGlzdHMtNmI4NmY2ZGEtYjk1OC01MWVmLTk4NmItNTdlOWFmMTk5MGZlLWF0dHItMy1rZXkiIGNsYXNzPSJlciBlbnRpdHlMYWJlbCI+PC90ZXh0PjxyZWN0IGhlaWdodD0iMjIiIHdpZHRoPSI1MS42MzI4MTI1IiB5PSI5MCIgeD0iMCIgY2xhc3M9ImVyIGF0dHJpYnV0ZUJveEV2ZW4iPjwvcmVjdD48dGV4dCBzdHlsZT0iZG9taW5hbnQtYmFzZWxpbmU6IG1pZGRsZTsgZm9udC1zaXplOiAxMC4ycHg7IiB0cmFuc2Zvcm09InRyYW5zbGF0ZSg1LDEwMSkiIHk9IjAiIHg9IjAiIGlkPSJ0ZXh0LWVudGl0eS1zaG9wcGluZ2xpc3RzLTZiODZmNmRhLWI5NTgtNTFlZi05ODZiLTU3ZTlhZjE5OTBmZS1hdHRyLTQtdHlwZSIgY2xhc3M9ImVyIGVudGl0eUxhYmVsIj5kYXRldGltZTwvdGV4dD48cmVjdCBoZWlnaHQ9IjIyIiB3aWR0aD0iNTkuOTg0Mzc1IiB5PSI5MCIgeD0iNTEuNjMyODEyNSIgY2xhc3M9ImVyIGF0dHJpYnV0ZUJveEV2ZW4iPjwvcmVjdD48dGV4dCBzdHlsZT0iZG9taW5hbnQtYmFzZWxpbmU6IG1pZGRsZTsgZm9udC1zaXplOiAxMC4ycHg7IiB0cmFuc2Zvcm09InRyYW5zbGF0ZSg1Ni42MzI4MTI1LDEwMSkiIHk9IjAiIHg9IjAiIGlkPSJ0ZXh0LWVudGl0eS1zaG9wcGluZ2xpc3RzLTZiODZmNmRhLWI5NTgtNTFlZi05ODZiLTU3ZTlhZjE5OTBmZS1hdHRyLTQtbmFtZSIgY2xhc3M9ImVyIGVudGl0eUxhYmVsIj5jcmVhdGVkX2F0PC90ZXh0PjxyZWN0IGhlaWdodD0iMjIiIHdpZHRoPSIyMS42ODc2OTA3MzQ4NjMyOCIgeT0iOTAiIHg9IjExMS42MTcxODc1IiBjbGFzcz0iZXIgYXR0cmlidXRlQm94RXZlbiI+PC9yZWN0Pjx0ZXh0IHN0eWxlPSJkb21pbmFudC1iYXNlbGluZTogbWlkZGxlOyBmb250LXNpemU6IDEwLjJweDsiIHRyYW5zZm9ybT0idHJhbnNsYXRlKDExNi42MTcxODc1LDEwMSkiIHk9IjAiIHg9IjAiIGlkPSJ0ZXh0LWVudGl0eS1zaG9wcGluZ2xpc3RzLTZiODZmNmRhLWI5NTgtNTFlZi05ODZiLTU3ZTlhZjE5OTBmZS1hdHRyLTQta2V5IiBjbGFzcz0iZXIgZW50aXR5TGFiZWwiPjwvdGV4dD48L2c+PGcgdHJhbnNmb3JtPSJ0cmFuc2xhdGUoNjcuMDI3MzQzNzUsNDk5ICkiIGlkPSJlbnRpdHktbWVudWRpc2hlcy1iZjIyYTY0OS1mNWNkLTU5NjYtYWI5Yi1hNjQyYTQzZDA4MzciPjxyZWN0IGhlaWdodD0iOTAiIHdpZHRoPSIxMDcuMDQ3MDY1NzM0ODYzMjgiIHk9IjAiIHg9IjAiIGNsYXNzPSJlciBlbnRpdHlCb3giPjwvcmVjdD48dGV4dCBzdHlsZT0iZG9taW5hbnQtYmFzZWxpbmU6IG1pZGRsZTsgdGV4dC1hbmNob3I6IG1pZGRsZTsgZm9udC1zaXplOiAxMnB4OyIgdHJhbnNmb3JtPSJ0cmFuc2xhdGUoNTMuNTIzNTMyODY3NDMxNjQsMTIpIiB5PSIwIiB4PSIwIiBpZD0idGV4dC1lbnRpdHktbWVudWRpc2hlcy1iZjIyYTY0OS1mNWNkLTU5NjYtYWI5Yi1hNjQyYTQzZDA4MzciIGNsYXNzPSJlciBlbnRpdHlMYWJlbCI+bWVudV9kaXNoZXM8L3RleHQ+PHJlY3QgaGVpZ2h0PSIyMiIgd2lkdGg9IjM2LjI0MjE4NzUiIHk9IjI0IiB4PSIwIiBjbGFzcz0iZXIgYXR0cmlidXRlQm94T2RkIj48L3JlY3Q+PHRleHQgc3R5bGU9ImRvbWluYW50LWJhc2VsaW5lOiBtaWRkbGU7IGZvbnQtc2l6ZTogMTAuMnB4OyIgdHJhbnNmb3JtPSJ0cmFuc2xhdGUoNSwzNSkiIHk9IjAiIHg9IjAiIGlkPSJ0ZXh0LWVudGl0eS1tZW51ZGlzaGVzLWJmMjJhNjQ5LWY1Y2QtNTk2Ni1hYjliLWE2NDJhNDNkMDgzNy1hdHRyLTEtdHlwZSIgY2xhc3M9ImVyIGVudGl0eUxhYmVsIj5iaWdpbnQ8L3RleHQ+PHJlY3QgaGVpZ2h0PSIyMiIgd2lkdGg9IjQ5LjExNzE4NzUiIHk9IjI0IiB4PSIzNi4yNDIxODc1IiBjbGFzcz0iZXIgYXR0cmlidXRlQm94T2RkIj48L3JlY3Q+PHRleHQgc3R5bGU9ImRvbWluYW50LWJhc2VsaW5lOiBtaWRkbGU7IGZvbnQtc2l6ZTogMTAuMnB4OyIgdHJhbnNmb3JtPSJ0cmFuc2xhdGUoNDEuMjQyMTg3NSwzNSkiIHk9IjAiIHg9IjAiIGlkPSJ0ZXh0LWVudGl0eS1tZW51ZGlzaGVzLWJmMjJhNjQ5LWY1Y2QtNTk2Ni1hYjliLWE2NDJhNDNkMDgzNy1hdHRyLTEtbmFtZSIgY2xhc3M9ImVyIGVudGl0eUxhYmVsIj5pZDwvdGV4dD48cmVjdCBoZWlnaHQ9IjIyIiB3aWR0aD0iMjEuNjg3NjkwNzM0ODYzMjgiIHk9IjI0IiB4PSI4NS4zNTkzNzUiIGNsYXNzPSJlciBhdHRyaWJ1dGVCb3hPZGQiPjwvcmVjdD48dGV4dCBzdHlsZT0iZG9taW5hbnQtYmFzZWxpbmU6IG1pZGRsZTsgZm9udC1zaXplOiAxMC4ycHg7IiB0cmFuc2Zvcm09InRyYW5zbGF0ZSg5MC4zNTkzNzUsMzUpIiB5PSIwIiB4PSIwIiBpZD0idGV4dC1lbnRpdHktbWVudWRpc2hlcy1iZjIyYTY0OS1mNWNkLTU5NjYtYWI5Yi1hNjQyYTQzZDA4MzctYXR0ci0xLWtleSIgY2xhc3M9ImVyIGVudGl0eUxhYmVsIj5QSzwvdGV4dD48cmVjdCBoZWlnaHQ9IjIyIiB3aWR0aD0iMzYuMjQyMTg3NSIgeT0iNDYiIHg9IjAiIGNsYXNzPSJlciBhdHRyaWJ1dGVCb3hFdmVuIj48L3JlY3Q+PHRleHQgc3R5bGU9ImRvbWluYW50LWJhc2VsaW5lOiBtaWRkbGU7IGZvbnQtc2l6ZTogMTAuMnB4OyIgdHJhbnNmb3JtPSJ0cmFuc2xhdGUoNSw1NykiIHk9IjAiIHg9IjAiIGlkPSJ0ZXh0LWVudGl0eS1tZW51ZGlzaGVzLWJmMjJhNjQ5LWY1Y2QtNTk2Ni1hYjliLWE2NDJhNDNkMDgzNy1hdHRyLTItdHlwZSIgY2xhc3M9ImVyIGVudGl0eUxhYmVsIj5iaWdpbnQ8L3RleHQ+PHJlY3QgaGVpZ2h0PSIyMiIgd2lkdGg9IjQ5LjExNzE4NzUiIHk9IjQ2IiB4PSIzNi4yNDIxODc1IiBjbGFzcz0iZXIgYXR0cmlidXRlQm94RXZlbiI+PC9yZWN0Pjx0ZXh0IHN0eWxlPSJkb21pbmFudC1iYXNlbGluZTogbWlkZGxlOyBmb250LXNpemU6IDEwLjJweDsiIHRyYW5zZm9ybT0idHJhbnNsYXRlKDQxLjI0MjE4NzUsNTcpIiB5PSIwIiB4PSIwIiBpZD0idGV4dC1lbnRpdHktbWVudWRpc2hlcy1iZjIyYTY0OS1mNWNkLTU5NjYtYWI5Yi1hNjQyYTQzZDA4MzctYXR0ci0yLW5hbWUiIGNsYXNzPSJlciBlbnRpdHlMYWJlbCI+bWVudV9pZDwvdGV4dD48cmVjdCBoZWlnaHQ9IjIyIiB3aWR0aD0iMjEuNjg3NjkwNzM0ODYzMjgiIHk9IjQ2IiB4PSI4NS4zNTkzNzUiIGNsYXNzPSJlciBhdHRyaWJ1dGVCb3hFdmVuIj48L3JlY3Q+PHRleHQgc3R5bGU9ImRvbWluYW50LWJhc2VsaW5lOiBtaWRkbGU7IGZvbnQtc2l6ZTogMTAuMnB4OyIgdHJhbnNmb3JtPSJ0cmFuc2xhdGUoOTAuMzU5Mzc1LDU3KSIgeT0iMCIgeD0iMCIgaWQ9InRleHQtZW50aXR5LW1lbnVkaXNoZXMtYmYyMmE2NDktZjVjZC01OTY2LWFiOWItYTY0MmE0M2QwODM3LWF0dHItMi1rZXkiIGNsYXNzPSJlciBlbnRpdHlMYWJlbCI+Rks8L3RleHQ+PHJlY3QgaGVpZ2h0PSIyMiIgd2lkdGg9IjM2LjI0MjE4NzUiIHk9IjY4IiB4PSIwIiBjbGFzcz0iZXIgYXR0cmlidXRlQm94T2RkIj48L3JlY3Q+PHRleHQgc3R5bGU9ImRvbWluYW50LWJhc2VsaW5lOiBtaWRkbGU7IGZvbnQtc2l6ZTogMTAuMnB4OyIgdHJhbnNmb3JtPSJ0cmFuc2xhdGUoNSw3OSkiIHk9IjAiIHg9IjAiIGlkPSJ0ZXh0LWVudGl0eS1tZW51ZGlzaGVzLWJmMjJhNjQ5LWY1Y2QtNTk2Ni1hYjliLWE2NDJhNDNkMDgzNy1hdHRyLTMtdHlwZSIgY2xhc3M9ImVyIGVudGl0eUxhYmVsIj5iaWdpbnQ8L3RleHQ+PHJlY3QgaGVpZ2h0PSIyMiIgd2lkdGg9IjQ5LjExNzE4NzUiIHk9IjY4IiB4PSIzNi4yNDIxODc1IiBjbGFzcz0iZXIgYXR0cmlidXRlQm94T2RkIj48L3JlY3Q+PHRleHQgc3R5bGU9ImRvbWluYW50LWJhc2VsaW5lOiBtaWRkbGU7IGZvbnQtc2l6ZTogMTAuMnB4OyIgdHJhbnNmb3JtPSJ0cmFuc2xhdGUoNDEuMjQyMTg3NSw3OSkiIHk9IjAiIHg9IjAiIGlkPSJ0ZXh0LWVudGl0eS1tZW51ZGlzaGVzLWJmMjJhNjQ5LWY1Y2QtNTk2Ni1hYjliLWE2NDJhNDNkMDgzNy1hdHRyLTMtbmFtZSIgY2xhc3M9ImVyIGVudGl0eUxhYmVsIj5kaXNoX2lkPC90ZXh0PjxyZWN0IGhlaWdodD0iMjIiIHdpZHRoPSIyMS42ODc2OTA3MzQ4NjMyOCIgeT0iNjgiIHg9Ijg1LjM1OTM3NSIgY2xhc3M9ImVyIGF0dHJpYnV0ZUJveE9kZCI+PC9yZWN0Pjx0ZXh0IHN0eWxlPSJkb21pbmFudC1iYXNlbGluZTogbWlkZGxlOyBmb250LXNpemU6IDEwLjJweDsiIHRyYW5zZm9ybT0idHJhbnNsYXRlKDkwLjM1OTM3NSw3OSkiIHk9IjAiIHg9IjAiIGlkPSJ0ZXh0LWVudGl0eS1tZW51ZGlzaGVzLWJmMjJhNjQ5LWY1Y2QtNTk2Ni1hYjliLWE2NDJhNDNkMDgzNy1hdHRyLTMta2V5IiBjbGFzcz0iZXIgZW50aXR5TGFiZWwiPkZLPC90ZXh0PjwvZz48ZyB0cmFuc2Zvcm09InRyYW5zbGF0ZSgzNDMuOTE4MjA3MTY4NTc5MSw3MTEgKSIgaWQ9ImVudGl0eS1kaXNoaW5ncmVkaWVudHMtNTdlYTk0ZGQtNTk3Zi01ZWUxLTliNGUtZDQ2MjNjM2Y0ZTRmIj48cmVjdCBoZWlnaHQ9IjEzNCIgd2lkdGg9IjExNy45OTIxODc1IiB5PSIwIiB4PSIwIiBjbGFzcz0iZXIgZW50aXR5Qm94Ij48L3JlY3Q+PHRleHQgc3R5bGU9ImRvbWluYW50LWJhc2VsaW5lOiBtaWRkbGU7IHRleHQtYW5jaG9yOiBtaWRkbGU7IGZvbnQtc2l6ZTogMTJweDsiIHRyYW5zZm9ybT0idHJhbnNsYXRlKDU4Ljk5NjA5Mzc1LDEyKSIgeT0iMCIgeD0iMCIgaWQ9InRleHQtZW50aXR5LWRpc2hpbmdyZWRpZW50cy01N2VhOTRkZC01OTdmLTVlZTEtOWI0ZS1kNDYyM2MzZjRlNGYiIGNsYXNzPSJlciBlbnRpdHlMYWJlbCI+ZGlzaF9pbmdyZWRpZW50czwvdGV4dD48cmVjdCBoZWlnaHQ9IjIyIiB3aWR0aD0iNDYuNTY1OTI4MTQxMjc2MDQiIHk9IjI0IiB4PSIwIiBjbGFzcz0iZXIgYXR0cmlidXRlQm94T2RkIj48L3JlY3Q+PHRleHQgc3R5bGU9ImRvbWluYW50LWJhc2VsaW5lOiBtaWRkbGU7IGZvbnQtc2l6ZTogMTAuMnB4OyIgdHJhbnNmb3JtPSJ0cmFuc2xhdGUoNSwzNSkiIHk9IjAiIHg9IjAiIGlkPSJ0ZXh0LWVudGl0eS1kaXNoaW5ncmVkaWVudHMtNTdlYTk0ZGQtNTk3Zi01ZWUxLTliNGUtZDQ2MjNjM2Y0ZTRmLWF0dHItMS10eXBlIiBjbGFzcz0iZXIgZW50aXR5TGFiZWwiPmJpZ2ludDwvdGV4dD48cmVjdCBoZWlnaHQ9IjIyIiB3aWR0aD0iNDkuMjExNzAyOTgyNTg0NjMiIHk9IjI0IiB4PSI0Ni41NjU5MjgxNDEyNzYwNCIgY2xhc3M9ImVyIGF0dHJpYnV0ZUJveE9kZCI+PC9yZWN0Pjx0ZXh0IHN0eWxlPSJkb21pbmFudC1iYXNlbGluZTogbWlkZGxlOyBmb250LXNpemU6IDEwLjJweDsiIHRyYW5zZm9ybT0idHJhbnNsYXRlKDUxLjU2NTkyODE0MTI3NjA0LDM1KSIgeT0iMCIgeD0iMCIgaWQ9InRleHQtZW50aXR5LWRpc2hpbmdyZWRpZW50cy01N2VhOTRkZC01OTdmLTVlZTEtOWI0ZS1kNDYyM2MzZjRlNGYtYXR0ci0xLW5hbWUiIGNsYXNzPSJlciBlbnRpdHlMYWJlbCI+aWQ8L3RleHQ+PHJlY3QgaGVpZ2h0PSIyMiIgd2lkdGg9IjIyLjIxNDU1NjM3NjEzOTMyNCIgeT0iMjQiIHg9Ijk1Ljc3NzYzMTEyMzg2MDY3IiBjbGFzcz0iZXIgYXR0cmlidXRlQm94T2RkIj48L3JlY3Q+PHRleHQgc3R5bGU9ImRvbWluYW50LWJhc2VsaW5lOiBtaWRkbGU7IGZvbnQtc2l6ZTogMTAuMnB4OyIgdHJhbnNmb3JtPSJ0cmFuc2xhdGUoMTAwLjc3NzYzMTEyMzg2MDY3LDM1KSIgeT0iMCIgeD0iMCIgaWQ9InRleHQtZW50aXR5LWRpc2hpbmdyZWRpZW50cy01N2VhOTRkZC01OTdmLTVlZTEtOWI0ZS1kNDYyM2MzZjRlNGYtYXR0ci0xLWtleSIgY2xhc3M9ImVyIGVudGl0eUxhYmVsIj5QSzwvdGV4dD48cmVjdCBoZWlnaHQ9IjIyIiB3aWR0aD0iNDYuNTY1OTI4MTQxMjc2MDQiIHk9IjQ2IiB4PSIwIiBjbGFzcz0iZXIgYXR0cmlidXRlQm94RXZlbiI+PC9yZWN0Pjx0ZXh0IHN0eWxlPSJkb21pbmFudC1iYXNlbGluZTogbWlkZGxlOyBmb250LXNpemU6IDEwLjJweDsiIHRyYW5zZm9ybT0idHJhbnNsYXRlKDUsNTcpIiB5PSIwIiB4PSIwIiBpZD0idGV4dC1lbnRpdHktZGlzaGluZ3JlZGllbnRzLTU3ZWE5NGRkLTU5N2YtNWVlMS05YjRlLWQ0NjIzYzNmNGU0Zi1hdHRyLTItdHlwZSIgY2xhc3M9ImVyIGVudGl0eUxhYmVsIj5iaWdpbnQ8L3RleHQ+PHJlY3QgaGVpZ2h0PSIyMiIgd2lkdGg9IjQ5LjIxMTcwMjk4MjU4NDYzIiB5PSI0NiIgeD0iNDYuNTY1OTI4MTQxMjc2MDQiIGNsYXNzPSJlciBhdHRyaWJ1dGVCb3hFdmVuIj48L3JlY3Q+PHRleHQgc3R5bGU9ImRvbWluYW50LWJhc2VsaW5lOiBtaWRkbGU7IGZvbnQtc2l6ZTogMTAuMnB4OyIgdHJhbnNmb3JtPSJ0cmFuc2xhdGUoNTEuNTY1OTI4MTQxMjc2MDQsNTcpIiB5PSIwIiB4PSIwIiBpZD0idGV4dC1lbnRpdHktZGlzaGluZ3JlZGllbnRzLTU3ZWE5NGRkLTU5N2YtNWVlMS05YjRlLWQ0NjIzYzNmNGU0Zi1hdHRyLTItbmFtZSIgY2xhc3M9ImVyIGVudGl0eUxhYmVsIj5kaXNoX2lkPC90ZXh0PjxyZWN0IGhlaWdodD0iMjIiIHdpZHRoPSIyMi4yMTQ1NTYzNzYxMzkzMjQiIHk9IjQ2IiB4PSI5NS43Nzc2MzExMjM4NjA2NyIgY2xhc3M9ImVyIGF0dHJpYnV0ZUJveEV2ZW4iPjwvcmVjdD48dGV4dCBzdHlsZT0iZG9taW5hbnQtYmFzZWxpbmU6IG1pZGRsZTsgZm9udC1zaXplOiAxMC4ycHg7IiB0cmFuc2Zvcm09InRyYW5zbGF0ZSgxMDAuNzc3NjMxMTIzODYwNjcsNTcpIiB5PSIwIiB4PSIwIiBpZD0idGV4dC1lbnRpdHktZGlzaGluZ3JlZGllbnRzLTU3ZWE5NGRkLTU5N2YtNWVlMS05YjRlLWQ0NjIzYzNmNGU0Zi1hdHRyLTIta2V5IiBjbGFzcz0iZXIgZW50aXR5TGFiZWwiPkZLPC90ZXh0PjxyZWN0IGhlaWdodD0iMjIiIHdpZHRoPSI0Ni41NjU5MjgxNDEyNzYwNCIgeT0iNjgiIHg9IjAiIGNsYXNzPSJlciBhdHRyaWJ1dGVCb3hPZGQiPjwvcmVjdD48dGV4dCBzdHlsZT0iZG9taW5hbnQtYmFzZWxpbmU6IG1pZGRsZTsgZm9udC1zaXplOiAxMC4ycHg7IiB0cmFuc2Zvcm09InRyYW5zbGF0ZSg1LDc5KSIgeT0iMCIgeD0iMCIgaWQ9InRleHQtZW50aXR5LWRpc2hpbmdyZWRpZW50cy01N2VhOTRkZC01OTdmLTVlZTEtOWI0ZS1kNDYyM2MzZjRlNGYtYXR0ci0zLXR5cGUiIGNsYXNzPSJlciBlbnRpdHlMYWJlbCI+YmlnaW50PC90ZXh0PjxyZWN0IGhlaWdodD0iMjIiIHdpZHRoPSI0OS4yMTE3MDI5ODI1ODQ2MyIgeT0iNjgiIHg9IjQ2LjU2NTkyODE0MTI3NjA0IiBjbGFzcz0iZXIgYXR0cmlidXRlQm94T2RkIj48L3JlY3Q+PHRleHQgc3R5bGU9ImRvbWluYW50LWJhc2VsaW5lOiBtaWRkbGU7IGZvbnQtc2l6ZTogMTAuMnB4OyIgdHJhbnNmb3JtPSJ0cmFuc2xhdGUoNTEuNTY1OTI4MTQxMjc2MDQsNzkpIiB5PSIwIiB4PSIwIiBpZD0idGV4dC1lbnRpdHktZGlzaGluZ3JlZGllbnRzLTU3ZWE5NGRkLTU5N2YtNWVlMS05YjRlLWQ0NjIzYzNmNGU0Zi1hdHRyLTMtbmFtZSIgY2xhc3M9ImVyIGVudGl0eUxhYmVsIj5pdGVtX2lkPC90ZXh0PjxyZWN0IGhlaWdodD0iMjIiIHdpZHRoPSIyMi4yMTQ1NTYzNzYxMzkzMjQiIHk9IjY4IiB4PSI5NS43Nzc2MzExMjM4NjA2NyIgY2xhc3M9ImVyIGF0dHJpYnV0ZUJveE9kZCI+PC9yZWN0Pjx0ZXh0IHN0eWxlPSJkb21pbmFudC1iYXNlbGluZTogbWlkZGxlOyBmb250LXNpemU6IDEwLjJweDsiIHRyYW5zZm9ybT0idHJhbnNsYXRlKDEwMC43Nzc2MzExMjM4NjA2Nyw3OSkiIHk9IjAiIHg9IjAiIGlkPSJ0ZXh0LWVudGl0eS1kaXNoaW5ncmVkaWVudHMtNTdlYTk0ZGQtNTk3Zi01ZWUxLTliNGUtZDQ2MjNjM2Y0ZTRmLWF0dHItMy1rZXkiIGNsYXNzPSJlciBlbnRpdHlMYWJlbCI+Rks8L3RleHQ+PHJlY3QgaGVpZ2h0PSIyMiIgd2lkdGg9IjQ2LjU2NTkyODE0MTI3NjA0IiB5PSI5MCIgeD0iMCIgY2xhc3M9ImVyIGF0dHJpYnV0ZUJveEV2ZW4iPjwvcmVjdD48dGV4dCBzdHlsZT0iZG9taW5hbnQtYmFzZWxpbmU6IG1pZGRsZTsgZm9udC1zaXplOiAxMC4ycHg7IiB0cmFuc2Zvcm09InRyYW5zbGF0ZSg1LDEwMSkiIHk9IjAiIHg9IjAiIGlkPSJ0ZXh0LWVudGl0eS1kaXNoaW5ncmVkaWVudHMtNTdlYTk0ZGQtNTk3Zi01ZWUxLTliNGUtZDQ2MjNjM2Y0ZTRmLWF0dHItNC10eXBlIiBjbGFzcz0iZXIgZW50aXR5TGFiZWwiPmRlY2ltYWw8L3RleHQ+PHJlY3QgaGVpZ2h0PSIyMiIgd2lkdGg9IjQ5LjIxMTcwMjk4MjU4NDYzIiB5PSI5MCIgeD0iNDYuNTY1OTI4MTQxMjc2MDQiIGNsYXNzPSJlciBhdHRyaWJ1dGVCb3hFdmVuIj48L3JlY3Q+PHRleHQgc3R5bGU9ImRvbWluYW50LWJhc2VsaW5lOiBtaWRkbGU7IGZvbnQtc2l6ZTogMTAuMnB4OyIgdHJhbnNmb3JtPSJ0cmFuc2xhdGUoNTEuNTY1OTI4MTQxMjc2MDQsMTAxKSIgeT0iMCIgeD0iMCIgaWQ9InRleHQtZW50aXR5LWRpc2hpbmdyZWRpZW50cy01N2VhOTRkZC01OTdmLTVlZTEtOWI0ZS1kNDYyM2MzZjRlNGYtYXR0ci00LW5hbWUiIGNsYXNzPSJlciBlbnRpdHlMYWJlbCI+cXVhbnRpdHk8L3RleHQ+PHJlY3QgaGVpZ2h0PSIyMiIgd2lkdGg9IjIyLjIxNDU1NjM3NjEzOTMyNCIgeT0iOTAiIHg9Ijk1Ljc3NzYzMTEyMzg2MDY3IiBjbGFzcz0iZXIgYXR0cmlidXRlQm94RXZlbiI+PC9yZWN0Pjx0ZXh0IHN0eWxlPSJkb21pbmFudC1iYXNlbGluZTogbWlkZGxlOyBmb250LXNpemU6IDEwLjJweDsiIHRyYW5zZm9ybT0idHJhbnNsYXRlKDEwMC43Nzc2MzExMjM4NjA2NywxMDEpIiB5PSIwIiB4PSIwIiBpZD0idGV4dC1lbnRpdHktZGlzaGluZ3JlZGllbnRzLTU3ZWE5NGRkLTU5N2YtNWVlMS05YjRlLWQ0NjIzYzNmNGU0Zi1hdHRyLTQta2V5IiBjbGFzcz0iZXIgZW50aXR5TGFiZWwiPjwvdGV4dD48cmVjdCBoZWlnaHQ9IjIyIiB3aWR0aD0iNDYuNTY1OTI4MTQxMjc2MDQiIHk9IjExMiIgeD0iMCIgY2xhc3M9ImVyIGF0dHJpYnV0ZUJveE9kZCI+PC9yZWN0Pjx0ZXh0IHN0eWxlPSJkb21pbmFudC1iYXNlbGluZTogbWlkZGxlOyBmb250LXNpemU6IDEwLjJweDsiIHRyYW5zZm9ybT0idHJhbnNsYXRlKDUsMTIzKSIgeT0iMCIgeD0iMCIgaWQ9InRleHQtZW50aXR5LWRpc2hpbmdyZWRpZW50cy01N2VhOTRkZC01OTdmLTVlZTEtOWI0ZS1kNDYyM2MzZjRlNGYtYXR0ci01LXR5cGUiIGNsYXNzPSJlciBlbnRpdHlMYWJlbCI+c3RyaW5nPC90ZXh0PjxyZWN0IGhlaWdodD0iMjIiIHdpZHRoPSI0OS4yMTE3MDI5ODI1ODQ2MyIgeT0iMTEyIiB4PSI0Ni41NjU5MjgxNDEyNzYwNCIgY2xhc3M9ImVyIGF0dHJpYnV0ZUJveE9kZCI+PC9yZWN0Pjx0ZXh0IHN0eWxlPSJkb21pbmFudC1iYXNlbGluZTogbWlkZGxlOyBmb250LXNpemU6IDEwLjJweDsiIHRyYW5zZm9ybT0idHJhbnNsYXRlKDUxLjU2NTkyODE0MTI3NjA0LDEyMykiIHk9IjAiIHg9IjAiIGlkPSJ0ZXh0LWVudGl0eS1kaXNoaW5ncmVkaWVudHMtNTdlYTk0ZGQtNTk3Zi01ZWUxLTliNGUtZDQ2MjNjM2Y0ZTRmLWF0dHItNS1uYW1lIiBjbGFzcz0iZXIgZW50aXR5TGFiZWwiPnVuaXQ8L3RleHQ+PHJlY3QgaGVpZ2h0PSIyMiIgd2lkdGg9IjIyLjIxNDU1NjM3NjEzOTMyNCIgeT0iMTEyIiB4PSI5NS43Nzc2MzExMjM4NjA2NyIgY2xhc3M9ImVyIGF0dHJpYnV0ZUJveE9kZCI+PC9yZWN0Pjx0ZXh0IHN0eWxlPSJkb21pbmFudC1iYXNlbGluZTogbWlkZGxlOyBmb250LXNpemU6IDEwLjJweDsiIHRyYW5zZm9ybT0idHJhbnNsYXRlKDEwMC43Nzc2MzExMjM4NjA2NywxMjMpIiB5PSIwIiB4PSIwIiBpZD0idGV4dC1lbnRpdHktZGlzaGluZ3JlZGllbnRzLTU3ZWE5NGRkLTU5N2YtNWVlMS05YjRlLWQ0NjIzYzNmNGU0Zi1hdHRyLTUta2V5IiBjbGFzcz0iZXIgZW50aXR5TGFiZWwiPjwvdGV4dD48L2c+PGcgdHJhbnNmb3JtPSJ0cmFuc2xhdGUoNjQyLjc5ODQ1MjM3NzMxOTMsNzAwICkiIGlkPSJlbnRpdHktc2hvcHBpbmdsaXN0aXRlbXMtYzM5Yzg3OWItNzE4YS01NjdjLWI5NDItNGRmNzVmNWZmN2E5Ij48cmVjdCBoZWlnaHQ9IjE1NiIgd2lkdGg9IjE1MS4zNTE3NTMyMzQ4NjMyOCIgeT0iMCIgeD0iMCIgY2xhc3M9ImVyIGVudGl0eUJveCI+PC9yZWN0Pjx0ZXh0IHN0eWxlPSJkb21pbmFudC1iYXNlbGluZTogbWlkZGxlOyB0ZXh0LWFuY2hvcjogbWlkZGxlOyBmb250LXNpemU6IDEycHg7IiB0cmFuc2Zvcm09InRyYW5zbGF0ZSg3NS42NzU4NzY2MTc0MzE2NCwxMikiIHk9IjAiIHg9IjAiIGlkPSJ0ZXh0LWVudGl0eS1zaG9wcGluZ2xpc3RpdGVtcy1jMzljODc5Yi03MThhLTU2N2MtYjk0Mi00ZGY3NWY1ZmY3YTkiIGNsYXNzPSJlciBlbnRpdHlMYWJlbCI+c2hvcHBpbmdfbGlzdF9pdGVtczwvdGV4dD48cmVjdCBoZWlnaHQ9IjIyIiB3aWR0aD0iNDYuMTQwNjI1IiB5PSIyNCIgeD0iMCIgY2xhc3M9ImVyIGF0dHJpYnV0ZUJveE9kZCI+PC9yZWN0Pjx0ZXh0IHN0eWxlPSJkb21pbmFudC1iYXNlbGluZTogbWlkZGxlOyBmb250LXNpemU6IDEwLjJweDsiIHRyYW5zZm9ybT0idHJhbnNsYXRlKDUsMzUpIiB5PSIwIiB4PSIwIiBpZD0idGV4dC1lbnRpdHktc2hvcHBpbmdsaXN0aXRlbXMtYzM5Yzg3OWItNzE4YS01NjdjLWI5NDItNGRmNzVmNWZmN2E5LWF0dHItMS10eXBlIiBjbGFzcz0iZXIgZW50aXR5TGFiZWwiPmJpZ2ludDwvdGV4dD48cmVjdCBoZWlnaHQ9IjIyIiB3aWR0aD0iODMuNTIzNDM3NSIgeT0iMjQiIHg9IjQ2LjE0MDYyNSIgY2xhc3M9ImVyIGF0dHJpYnV0ZUJveE9kZCI+PC9yZWN0Pjx0ZXh0IHN0eWxlPSJkb21pbmFudC1iYXNlbGluZTogbWlkZGxlOyBmb250LXNpemU6IDEwLjJweDsiIHRyYW5zZm9ybT0idHJhbnNsYXRlKDUxLjE0MDYyNSwzNSkiIHk9IjAiIHg9IjAiIGlkPSJ0ZXh0LWVudGl0eS1zaG9wcGluZ2xpc3RpdGVtcy1jMzljODc5Yi03MThhLTU2N2MtYjk0Mi00ZGY3NWY1ZmY3YTktYXR0ci0xLW5hbWUiIGNsYXNzPSJlciBlbnRpdHlMYWJlbCI+aWQ8L3RleHQ+PHJlY3QgaGVpZ2h0PSIyMiIgd2lkdGg9IjIxLjY4NzY5MDczNDg2MzI4IiB5PSIyNCIgeD0iMTI5LjY2NDA2MjUiIGNsYXNzPSJlciBhdHRyaWJ1dGVCb3hPZGQiPjwvcmVjdD48dGV4dCBzdHlsZT0iZG9taW5hbnQtYmFzZWxpbmU6IG1pZGRsZTsgZm9udC1zaXplOiAxMC4ycHg7IiB0cmFuc2Zvcm09InRyYW5zbGF0ZSgxMzQuNjY0MDYyNSwzNSkiIHk9IjAiIHg9IjAiIGlkPSJ0ZXh0LWVudGl0eS1zaG9wcGluZ2xpc3RpdGVtcy1jMzljODc5Yi03MThhLTU2N2MtYjk0Mi00ZGY3NWY1ZmY3YTktYXR0ci0xLWtleSIgY2xhc3M9ImVyIGVudGl0eUxhYmVsIj5QSzwvdGV4dD48cmVjdCBoZWlnaHQ9IjIyIiB3aWR0aD0iNDYuMTQwNjI1IiB5PSI0NiIgeD0iMCIgY2xhc3M9ImVyIGF0dHJpYnV0ZUJveEV2ZW4iPjwvcmVjdD48dGV4dCBzdHlsZT0iZG9taW5hbnQtYmFzZWxpbmU6IG1pZGRsZTsgZm9udC1zaXplOiAxMC4ycHg7IiB0cmFuc2Zvcm09InRyYW5zbGF0ZSg1LDU3KSIgeT0iMCIgeD0iMCIgaWQ9InRleHQtZW50aXR5LXNob3BwaW5nbGlzdGl0ZW1zLWMzOWM4NzliLTcxOGEtNTY3Yy1iOTQyLTRkZjc1ZjVmZjdhOS1hdHRyLTItdHlwZSIgY2xhc3M9ImVyIGVudGl0eUxhYmVsIj5iaWdpbnQ8L3RleHQ+PHJlY3QgaGVpZ2h0PSIyMiIgd2lkdGg9IjgzLjUyMzQzNzUiIHk9IjQ2IiB4PSI0Ni4xNDA2MjUiIGNsYXNzPSJlciBhdHRyaWJ1dGVCb3hFdmVuIj48L3JlY3Q+PHRleHQgc3R5bGU9ImRvbWluYW50LWJhc2VsaW5lOiBtaWRkbGU7IGZvbnQtc2l6ZTogMTAuMnB4OyIgdHJhbnNmb3JtPSJ0cmFuc2xhdGUoNTEuMTQwNjI1LDU3KSIgeT0iMCIgeD0iMCIgaWQ9InRleHQtZW50aXR5LXNob3BwaW5nbGlzdGl0ZW1zLWMzOWM4NzliLTcxOGEtNTY3Yy1iOTQyLTRkZjc1ZjVmZjdhOS1hdHRyLTItbmFtZSIgY2xhc3M9ImVyIGVudGl0eUxhYmVsIj5zaG9wcGluZ19saXN0X2lkPC90ZXh0PjxyZWN0IGhlaWdodD0iMjIiIHdpZHRoPSIyMS42ODc2OTA3MzQ4NjMyOCIgeT0iNDYiIHg9IjEyOS42NjQwNjI1IiBjbGFzcz0iZXIgYXR0cmlidXRlQm94RXZlbiI+PC9yZWN0Pjx0ZXh0IHN0eWxlPSJkb21pbmFudC1iYXNlbGluZTogbWlkZGxlOyBmb250LXNpemU6IDEwLjJweDsiIHRyYW5zZm9ybT0idHJhbnNsYXRlKDEzNC42NjQwNjI1LDU3KSIgeT0iMCIgeD0iMCIgaWQ9InRleHQtZW50aXR5LXNob3BwaW5nbGlzdGl0ZW1zLWMzOWM4NzliLTcxOGEtNTY3Yy1iOTQyLTRkZjc1ZjVmZjdhOS1hdHRyLTIta2V5IiBjbGFzcz0iZXIgZW50aXR5TGFiZWwiPkZLPC90ZXh0PjxyZWN0IGhlaWdodD0iMjIiIHdpZHRoPSI0Ni4xNDA2MjUiIHk9IjY4IiB4PSIwIiBjbGFzcz0iZXIgYXR0cmlidXRlQm94T2RkIj48L3JlY3Q+PHRleHQgc3R5bGU9ImRvbWluYW50LWJhc2VsaW5lOiBtaWRkbGU7IGZvbnQtc2l6ZTogMTAuMnB4OyIgdHJhbnNmb3JtPSJ0cmFuc2xhdGUoNSw3OSkiIHk9IjAiIHg9IjAiIGlkPSJ0ZXh0LWVudGl0eS1zaG9wcGluZ2xpc3RpdGVtcy1jMzljODc5Yi03MThhLTU2N2MtYjk0Mi00ZGY3NWY1ZmY3YTktYXR0ci0zLXR5cGUiIGNsYXNzPSJlciBlbnRpdHlMYWJlbCI+YmlnaW50PC90ZXh0PjxyZWN0IGhlaWdodD0iMjIiIHdpZHRoPSI4My41MjM0Mzc1IiB5PSI2OCIgeD0iNDYuMTQwNjI1IiBjbGFzcz0iZXIgYXR0cmlidXRlQm94T2RkIj48L3JlY3Q+PHRleHQgc3R5bGU9ImRvbWluYW50LWJhc2VsaW5lOiBtaWRkbGU7IGZvbnQtc2l6ZTogMTAuMnB4OyIgdHJhbnNmb3JtPSJ0cmFuc2xhdGUoNTEuMTQwNjI1LDc5KSIgeT0iMCIgeD0iMCIgaWQ9InRleHQtZW50aXR5LXNob3BwaW5nbGlzdGl0ZW1zLWMzOWM4NzliLTcxOGEtNTY3Yy1iOTQyLTRkZjc1ZjVmZjdhOS1hdHRyLTMtbmFtZSIgY2xhc3M9ImVyIGVudGl0eUxhYmVsIj5pdGVtX2lkPC90ZXh0PjxyZWN0IGhlaWdodD0iMjIiIHdpZHRoPSIyMS42ODc2OTA3MzQ4NjMyOCIgeT0iNjgiIHg9IjEyOS42NjQwNjI1IiBjbGFzcz0iZXIgYXR0cmlidXRlQm94T2RkIj48L3JlY3Q+PHRleHQgc3R5bGU9ImRvbWluYW50LWJhc2VsaW5lOiBtaWRkbGU7IGZvbnQtc2l6ZTogMTAuMnB4OyIgdHJhbnNmb3JtPSJ0cmFuc2xhdGUoMTM0LjY2NDA2MjUsNzkpIiB5PSIwIiB4PSIwIiBpZD0idGV4dC1lbnRpdHktc2hvcHBpbmdsaXN0aXRlbXMtYzM5Yzg3OWItNzE4YS01NjdjLWI5NDItNGRmNzVmNWZmN2E5LWF0dHItMy1rZXkiIGNsYXNzPSJlciBlbnRpdHlMYWJlbCI+Rks8L3RleHQ+PHJlY3QgaGVpZ2h0PSIyMiIgd2lkdGg9IjQ2LjE0MDYyNSIgeT0iOTAiIHg9IjAiIGNsYXNzPSJlciBhdHRyaWJ1dGVCb3hFdmVuIj48L3JlY3Q+PHRleHQgc3R5bGU9ImRvbWluYW50LWJhc2VsaW5lOiBtaWRkbGU7IGZvbnQtc2l6ZTogMTAuMnB4OyIgdHJhbnNmb3JtPSJ0cmFuc2xhdGUoNSwxMDEpIiB5PSIwIiB4PSIwIiBpZD0idGV4dC1lbnRpdHktc2hvcHBpbmdsaXN0aXRlbXMtYzM5Yzg3OWItNzE4YS01NjdjLWI5NDItNGRmNzVmNWZmN2E5LWF0dHItNC10eXBlIiBjbGFzcz0iZXIgZW50aXR5TGFiZWwiPmludGVnZXI8L3RleHQ+PHJlY3QgaGVpZ2h0PSIyMiIgd2lkdGg9IjgzLjUyMzQzNzUiIHk9IjkwIiB4PSI0Ni4xNDA2MjUiIGNsYXNzPSJlciBhdHRyaWJ1dGVCb3hFdmVuIj48L3JlY3Q+PHRleHQgc3R5bGU9ImRvbWluYW50LWJhc2VsaW5lOiBtaWRkbGU7IGZvbnQtc2l6ZTogMTAuMnB4OyIgdHJhbnNmb3JtPSJ0cmFuc2xhdGUoNTEuMTQwNjI1LDEwMSkiIHk9IjAiIHg9IjAiIGlkPSJ0ZXh0LWVudGl0eS1zaG9wcGluZ2xpc3RpdGVtcy1jMzljODc5Yi03MThhLTU2N2MtYjk0Mi00ZGY3NWY1ZmY3YTktYXR0ci00LW5hbWUiIGNsYXNzPSJlciBlbnRpdHlMYWJlbCI+cXVhbnRpdHk8L3RleHQ+PHJlY3QgaGVpZ2h0PSIyMiIgd2lkdGg9IjIxLjY4NzY5MDczNDg2MzI4IiB5PSI5MCIgeD0iMTI5LjY2NDA2MjUiIGNsYXNzPSJlciBhdHRyaWJ1dGVCb3hFdmVuIj48L3JlY3Q+PHRleHQgc3R5bGU9ImRvbWluYW50LWJhc2VsaW5lOiBtaWRkbGU7IGZvbnQtc2l6ZTogMTAuMnB4OyIgdHJhbnNmb3JtPSJ0cmFuc2xhdGUoMTM0LjY2NDA2MjUsMTAxKSIgeT0iMCIgeD0iMCIgaWQ9InRleHQtZW50aXR5LXNob3BwaW5nbGlzdGl0ZW1zLWMzOWM4NzliLTcxOGEtNTY3Yy1iOTQyLTRkZjc1ZjVmZjdhOS1hdHRyLTQta2V5IiBjbGFzcz0iZXIgZW50aXR5TGFiZWwiPjwvdGV4dD48cmVjdCBoZWlnaHQ9IjIyIiB3aWR0aD0iNDYuMTQwNjI1IiB5PSIxMTIiIHg9IjAiIGNsYXNzPSJlciBhdHRyaWJ1dGVCb3hPZGQiPjwvcmVjdD48dGV4dCBzdHlsZT0iZG9taW5hbnQtYmFzZWxpbmU6IG1pZGRsZTsgZm9udC1zaXplOiAxMC4ycHg7IiB0cmFuc2Zvcm09InRyYW5zbGF0ZSg1LDEyMykiIHk9IjAiIHg9IjAiIGlkPSJ0ZXh0LWVudGl0eS1zaG9wcGluZ2xpc3RpdGVtcy1jMzljODc5Yi03MThhLTU2N2MtYjk0Mi00ZGY3NWY1ZmY3YTktYXR0ci01LXR5cGUiIGNsYXNzPSJlciBlbnRpdHlMYWJlbCI+c3RyaW5nPC90ZXh0PjxyZWN0IGhlaWdodD0iMjIiIHdpZHRoPSI4My41MjM0Mzc1IiB5PSIxMTIiIHg9IjQ2LjE0MDYyNSIgY2xhc3M9ImVyIGF0dHJpYnV0ZUJveE9kZCI+PC9yZWN0Pjx0ZXh0IHN0eWxlPSJkb21pbmFudC1iYXNlbGluZTogbWlkZGxlOyBmb250LXNpemU6IDEwLjJweDsiIHRyYW5zZm9ybT0idHJhbnNsYXRlKDUxLjE0MDYyNSwxMjMpIiB5PSIwIiB4PSIwIiBpZD0idGV4dC1lbnRpdHktc2hvcHBpbmdsaXN0aXRlbXMtYzM5Yzg3OWItNzE4YS01NjdjLWI5NDItNGRmNzVmNWZmN2E5LWF0dHItNS1uYW1lIiBjbGFzcz0iZXIgZW50aXR5TGFiZWwiPnVuaXQ8L3RleHQ+PHJlY3QgaGVpZ2h0PSIyMiIgd2lkdGg9IjIxLjY4NzY5MDczNDg2MzI4IiB5PSIxMTIiIHg9IjEyOS42NjQwNjI1IiBjbGFzcz0iZXIgYXR0cmlidXRlQm94T2RkIj48L3JlY3Q+PHRleHQgc3R5bGU9ImRvbWluYW50LWJhc2VsaW5lOiBtaWRkbGU7IGZvbnQtc2l6ZTogMTAuMnB4OyIgdHJhbnNmb3JtPSJ0cmFuc2xhdGUoMTM0LjY2NDA2MjUsMTIzKSIgeT0iMCIgeD0iMCIgaWQ9InRleHQtZW50aXR5LXNob3BwaW5nbGlzdGl0ZW1zLWMzOWM4NzliLTcxOGEtNTY3Yy1iOTQyLTRkZjc1ZjVmZjdhOS1hdHRyLTUta2V5IiBjbGFzcz0iZXIgZW50aXR5TGFiZWwiPjwvdGV4dD48cmVjdCBoZWlnaHQ9IjIyIiB3aWR0aD0iNDYuMTQwNjI1IiB5PSIxMzQiIHg9IjAiIGNsYXNzPSJlciBhdHRyaWJ1dGVCb3hFdmVuIj48L3JlY3Q+PHRleHQgc3R5bGU9ImRvbWluYW50LWJhc2VsaW5lOiBtaWRkbGU7IGZvbnQtc2l6ZTogMTAuMnB4OyIgdHJhbnNmb3JtPSJ0cmFuc2xhdGUoNSwxNDUpIiB5PSIwIiB4PSIwIiBpZD0idGV4dC1lbnRpdHktc2hvcHBpbmdsaXN0aXRlbXMtYzM5Yzg3OWItNzE4YS01NjdjLWI5NDItNGRmNzVmNWZmN2E5LWF0dHItNi10eXBlIiBjbGFzcz0iZXIgZW50aXR5TGFiZWwiPmJvb2xlYW48L3RleHQ+PHJlY3QgaGVpZ2h0PSIyMiIgd2lkdGg9IjgzLjUyMzQzNzUiIHk9IjEzNCIgeD0iNDYuMTQwNjI1IiBjbGFzcz0iZXIgYXR0cmlidXRlQm94RXZlbiI+PC9yZWN0Pjx0ZXh0IHN0eWxlPSJkb21pbmFudC1iYXNlbGluZTogbWlkZGxlOyBmb250LXNpemU6IDEwLjJweDsiIHRyYW5zZm9ybT0idHJhbnNsYXRlKDUxLjE0MDYyNSwxNDUpIiB5PSIwIiB4PSIwIiBpZD0idGV4dC1lbnRpdHktc2hvcHBpbmdsaXN0aXRlbXMtYzM5Yzg3OWItNzE4YS01NjdjLWI5NDItNGRmNzVmNWZmN2E5LWF0dHItNi1uYW1lIiBjbGFzcz0iZXIgZW50aXR5TGFiZWwiPmlzX3B1cmNoYXNlZDwvdGV4dD48cmVjdCBoZWlnaHQ9IjIyIiB3aWR0aD0iMjEuNjg3NjkwNzM0ODYzMjgiIHk9IjEzNCIgeD0iMTI5LjY2NDA2MjUiIGNsYXNzPSJlciBhdHRyaWJ1dGVCb3hFdmVuIj48L3JlY3Q+PHRleHQgc3R5bGU9ImRvbWluYW50LWJhc2VsaW5lOiBtaWRkbGU7IGZvbnQtc2l6ZTogMTAuMnB4OyIgdHJhbnNmb3JtPSJ0cmFuc2xhdGUoMTM0LjY2NDA2MjUsMTQ1KSIgeT0iMCIgeD0iMCIgaWQ9InRleHQtZW50aXR5LXNob3BwaW5nbGlzdGl0ZW1zLWMzOWM4NzliLTcxOGEtNTY3Yy1iOTQyLTRkZjc1ZjVmZjdhOS1hdHRyLTYta2V5IiBjbGFzcz0iZXIgZW50aXR5TGFiZWwiPjwvdGV4dD48L2c+PHJlY3QgaGVpZ2h0PSIxNCIgd2lkdGg9IjQ4IiB5PSIxNDIuNDQ4OTg5ODY4MTY0MDYiIHg9IjE2My4xMTI5NjA4MTU0Mjk3IiBjbGFzcz0iZXIgcmVsYXRpb25zaGlwTGFiZWxCb3giPjwvcmVjdD48dGV4dCBzdHlsZT0idGV4dC1hbmNob3I6IG1pZGRsZTsgZG9taW5hbnQtYmFzZWxpbmU6IG1pZGRsZTsgZm9udC1zaXplOiAxMnB4OyIgeT0iMTQ5LjQ0ODk4OTg2ODE2NDA2IiB4PSIxODcuMTEyOTYwODE1NDI5NyIgaWQ9InJlbDEiIGNsYXNzPSJlciByZWxhdGlvbnNoaXBMYWJlbCI+5L2c5oiQ44GZ44KLPC90ZXh0PjxyZWN0IGhlaWdodD0iMTQiIHdpZHRoPSI0OCIgeT0iMTc3LjgwMTUxMzY3MTg3NSIgeD0iMjg4LjU4NTIwNTA3ODEyNSIgY2xhc3M9ImVyIHJlbGF0aW9uc2hpcExhYmVsQm94Ij48L3JlY3Q+PHRleHQgc3R5bGU9InRleHQtYW5jaG9yOiBtaWRkbGU7IGRvbWluYW50LWJhc2VsaW5lOiBtaWRkbGU7IGZvbnQtc2l6ZTogMTJweDsiIHk9IjE4NC44MDE1MTM2NzE4NzUiIHg9IjMxMi41ODUyMDUwNzgxMjUiIGlkPSJyZWwyIiBjbGFzcz0iZXIgcmVsYXRpb25zaGlwTGFiZWwiPuS9nOaIkOOBmeOCizwvdGV4dD48cmVjdCBoZWlnaHQ9IjE0IiB3aWR0aD0iNDgiIHk9IjE2Ny4wODYzMTg5Njk3MjY1NiIgeD0iNTA4LjM5NzUyMTk3MjY1NjI1IiBjbGFzcz0iZXIgcmVsYXRpb25zaGlwTGFiZWxCb3giPjwvcmVjdD48dGV4dCBzdHlsZT0idGV4dC1hbmNob3I6IG1pZGRsZTsgZG9taW5hbnQtYmFzZWxpbmU6IG1pZGRsZTsgZm9udC1zaXplOiAxMnB4OyIgeT0iMTc0LjA4NjMxODk2OTcyNjU2IiB4PSI1MzIuMzk3NTIxOTcyNjU2MiIgaWQ9InJlbDMiIGNsYXNzPSJlciByZWxhdGlvbnNoaXBMYWJlbCI+566h55CG44GZ44KLPC90ZXh0PjxyZWN0IGhlaWdodD0iMTQiIHdpZHRoPSI0OCIgeT0iMjA0LjgwNDQxMjg0MTc5Njg4IiB4PSI3MjEuMjU5ODg3Njk1MzEyNSIgY2xhc3M9ImVyIHJlbGF0aW9uc2hpcExhYmVsQm94Ij48L3JlY3Q+PHRleHQgc3R5bGU9InRleHQtYW5jaG9yOiBtaWRkbGU7IGRvbWluYW50LWJhc2VsaW5lOiBtaWRkbGU7IGZvbnQtc2l6ZTogMTJweDsiIHk9IjIxMS44MDQ0MTI4NDE3OTY4OCIgeD0iNzQ1LjI1OTg4NzY5NTMxMjUiIGlkPSJyZWw0IiBjbGFzcz0iZXIgcmVsYXRpb25zaGlwTGFiZWwiPuS9nOaIkOOBmeOCizwvdGV4dD48cmVjdCBoZWlnaHQ9IjE0IiB3aWR0aD0iMjQiIHk9IjQyNy42NzA1MzIyMjY1NjI1IiB4PSI2My4wMzAxNjY2MjU5NzY1NiIgY2xhc3M9ImVyIHJlbGF0aW9uc2hpcExhYmVsQm94Ij48L3JlY3Q+PHRleHQgc3R5bGU9InRleHQtYW5jaG9yOiBtaWRkbGU7IGRvbWluYW50LWJhc2VsaW5lOiBtaWRkbGU7IGZvbnQtc2l6ZTogMTJweDsiIHk9IjQzNC42NzA1MzIyMjY1NjI1IiB4PSI3NS4wMzAxNjY2MjU5NzY1NiIgaWQ9InJlbDUiIGNsYXNzPSJlciByZWxhdGlvbnNoaXBMYWJlbCI+5ZCr44KAPC90ZXh0PjxyZWN0IGhlaWdodD0iMTQiIHdpZHRoPSI0OCIgeT0iNDI5LjczMTY4OTQ1MzEyNSIgeD0iMTk4Ljc3NjkzMTc2MjY5NTMiIGNsYXNzPSJlciByZWxhdGlvbnNoaXBMYWJlbEJveCI+PC9yZWN0Pjx0ZXh0IHN0eWxlPSJ0ZXh0LWFuY2hvcjogbWlkZGxlOyBkb21pbmFudC1iYXNlbGluZTogbWlkZGxlOyBmb250LXNpemU6IDEycHg7IiB5PSI0MzYuNzMxNjg5NDUzMTI1IiB4PSIyMjIuNzc2OTMxNzYyNjk1MyIgaWQ9InJlbDYiIGNsYXNzPSJlciByZWxhdGlvbnNoaXBMYWJlbCI+5ZCr44G+44KM44KLPC90ZXh0PjxyZWN0IGhlaWdodD0iMTQiIHdpZHRoPSI1OS42NDA2MjUiIHk9IjUzMS4xNTgyNjQxNjAxNTYyIiB4PSIzMjMuMDkyNjUxMzY3MTg3NSIgY2xhc3M9ImVyIHJlbGF0aW9uc2hpcExhYmVsQm94Ij48L3JlY3Q+PHRleHQgc3R5bGU9InRleHQtYW5jaG9yOiBtaWRkbGU7IGRvbWluYW50LWJhc2VsaW5lOiBtaWRkbGU7IGZvbnQtc2l6ZTogMTJweDsiIHk9IjUzOC4xNTgyNjQxNjAxNTYyIiB4PSIzNTIuOTEyOTYzODY3MTg3NSIgaWQ9InJlbDciIGNsYXNzPSJlciByZWxhdGlvbnNoaXBMYWJlbCI+5b+F6KaB44Go44GZ44KLPC90ZXh0PjxyZWN0IGhlaWdodD0iMTQiIHdpZHRoPSI0Ny40MDYyNSIgeT0iNjQyLjY0NDM0ODE0NDUzMTIiIHg9IjQ1Ni44MzAyMDAxOTUzMTI1IiBjbGFzcz0iZXIgcmVsYXRpb25zaGlwTGFiZWxCb3giPjwvcmVjdD48dGV4dCBzdHlsZT0idGV4dC1hbmNob3I6IG1pZGRsZTsgZG9taW5hbnQtYmFzZWxpbmU6IG1pZGRsZTsgZm9udC1zaXplOiAxMnB4OyIgeT0iNjQ5LjY0NDM0ODE0NDUzMTIiIHg9IjQ4MC41MzMzMjUxOTUzMTI1IiBpZD0icmVsOCIgY2xhc3M9ImVyIHJlbGF0aW9uc2hpcExhYmVsIj7kvb/jgo/jgozjgos8L3RleHQ+PHJlY3QgaGVpZ2h0PSIxNCIgd2lkdGg9IjI0IiB5PSI2NDQuMjA4NzQwMjM0Mzc1IiB4PSI3NTIuOTc2NzQ1NjA1NDY4OCIgY2xhc3M9ImVyIHJlbGF0aW9uc2hpcExhYmVsQm94Ij48L3JlY3Q+PHRleHQgc3R5bGU9InRleHQtYW5jaG9yOiBtaWRkbGU7IGRvbWluYW50LWJhc2VsaW5lOiBtaWRkbGU7IGZvbnQtc2l6ZTogMTJweDsiIHk9IjY1MS4yMDg3NDAyMzQzNzUiIHg9Ijc2NC45NzY3NDU2MDU0Njg4IiBpZD0icmVsOSIgY2xhc3M9ImVyIHJlbGF0aW9uc2hpcExhYmVsIj7lkKvjgoA8L3RleHQ+PHJlY3QgaGVpZ2h0PSIxNCIgd2lkdGg9IjQ4IiB5PSI2NDAuMDIzMTMyMzI0MjE4OCIgeD0iNTg0Ljc0NTkxMDY0NDUzMTIiIGNsYXNzPSJlciByZWxhdGlvbnNoaXBMYWJlbEJveCI+PC9yZWN0Pjx0ZXh0IHN0eWxlPSJ0ZXh0LWFuY2hvcjogbWlkZGxlOyBkb21pbmFudC1iYXNlbGluZTogbWlkZGxlOyBmb250LXNpemU6IDEycHg7IiB5PSI2NDcuMDIzMTMyMzI0MjE4OCIgeD0iNjA4Ljc0NTkxMDY0NDUzMTIiIGlkPSJyZWwxMCIgY2xhc3M9ImVyIHJlbGF0aW9uc2hpcExhYmVsIj7lkKvjgb7jgozjgos8L3RleHQ+PHJlY3QgaGVpZ2h0PSIxNCIgd2lkdGg9IjQ4IiB5PSI0MzYuNSIgeD0iNTIzLjgyMDAwNzMyNDIxODgiIGNsYXNzPSJlciByZWxhdGlvbnNoaXBMYWJlbEJveCI+PC9yZWN0Pjx0ZXh0IHN0eWxlPSJ0ZXh0LWFuY2hvcjogbWlkZGxlOyBkb21pbmFudC1iYXNlbGluZTogbWlkZGxlOyBmb250LXNpemU6IDEycHg7IiB5PSI0NDMuNSIgeD0iNTQ3LjgyMDAwNzMyNDIxODgiIGlkPSJyZWwxMSIgY2xhc3M9ImVyIHJlbGF0aW9uc2hpcExhYmVsIj7jga/kuIDnqK7jga48L3RleHQ+PC9zdmc+;" vertex="1" parent="1">
                        <mxGeometry x="-1160" y="-4962" width="855.1267700195312" height="876" as="geometry"/>
                    </mxCell>
                </UserObject>
            </root>
        </mxGraphModel>
    </diagram>
</mxfile>